G04 #@! TF.GenerationSoftware,KiCad,Pcbnew,(5.1.5)-3*
G04 #@! TF.CreationDate,2020-10-24T11:26:36-07:00*
G04 #@! TF.ProjectId,xmas_heart_2020,786d6173-5f68-4656-9172-745f32303230,rev?*
G04 #@! TF.SameCoordinates,Original*
G04 #@! TF.FileFunction,Legend,Bot*
G04 #@! TF.FilePolarity,Positive*
%FSLAX46Y46*%
G04 Gerber Fmt 4.6, Leading zero omitted, Abs format (unit mm)*
G04 Created by KiCad (PCBNEW (5.1.5)-3) date 2020-10-24 11:26:36*
%MOMM*%
%LPD*%
G04 APERTURE LIST*
%ADD10C,0.120000*%
%ADD11C,0.150000*%
G04 APERTURE END LIST*
D10*
X101900000Y-36030000D02*
X101100000Y-36030000D01*
X101900000Y-39470000D02*
X101100000Y-39470000D01*
X107925000Y-36030000D02*
X108725000Y-36030000D01*
X107925000Y-39470000D02*
X108725000Y-39470000D01*
D11*
X105886904Y-32602380D02*
X105886904Y-31602380D01*
X105886904Y-32078571D02*
X105315476Y-32078571D01*
X105315476Y-32602380D02*
X105315476Y-31602380D01*
X104315476Y-32602380D02*
X104886904Y-32602380D01*
X104601190Y-32602380D02*
X104601190Y-31602380D01*
X104696428Y-31745238D01*
X104791666Y-31840476D01*
X104886904Y-31888095D01*
X119227075Y-27559092D02*
X119092388Y-27491748D01*
X119025045Y-27491748D01*
X118924029Y-27525420D01*
X118823014Y-27626435D01*
X118789342Y-27727451D01*
X118789342Y-27794794D01*
X118823014Y-27895809D01*
X119092388Y-28165183D01*
X119799495Y-27458077D01*
X119563793Y-27222374D01*
X119462777Y-27188703D01*
X119395434Y-27188703D01*
X119294419Y-27222374D01*
X119227075Y-27289718D01*
X119193403Y-27390733D01*
X119193403Y-27458077D01*
X119227075Y-27559092D01*
X119462777Y-27794794D01*
X119193403Y-26851985D02*
X118789342Y-26447924D01*
X118284266Y-27357061D02*
X118991373Y-26649954D01*
X118519968Y-26313237D02*
X118519968Y-26245893D01*
X118486296Y-26144878D01*
X118317938Y-25976519D01*
X118216922Y-25942848D01*
X118149579Y-25942848D01*
X118048564Y-25976519D01*
X117981220Y-26043863D01*
X117913877Y-26178550D01*
X117913877Y-26986672D01*
X117476144Y-26548939D01*
X92107494Y-26447924D02*
X92040150Y-26582611D01*
X92040150Y-26649954D01*
X92073822Y-26750970D01*
X92174837Y-26851985D01*
X92275853Y-26885657D01*
X92343196Y-26885657D01*
X92444211Y-26851985D01*
X92713585Y-26582611D01*
X92006479Y-25875504D01*
X91770776Y-26111206D01*
X91737105Y-26212222D01*
X91737105Y-26279565D01*
X91770776Y-26380580D01*
X91838120Y-26447924D01*
X91939135Y-26481596D01*
X92006479Y-26481596D01*
X92107494Y-26447924D01*
X92343196Y-26212222D01*
X91400387Y-26481596D02*
X90996326Y-26885657D01*
X91905463Y-27390733D02*
X91198356Y-26683626D01*
X91097341Y-28198855D02*
X91501402Y-27794794D01*
X91299372Y-27996825D02*
X90592265Y-27289718D01*
X90760624Y-27323390D01*
X90895311Y-27323390D01*
X90996326Y-27289718D01*
X106470434Y-41185561D02*
X106327577Y-41233180D01*
X106089481Y-41233180D01*
X105994243Y-41185561D01*
X105946624Y-41137942D01*
X105899005Y-41042704D01*
X105899005Y-40947466D01*
X105946624Y-40852228D01*
X105994243Y-40804609D01*
X106089481Y-40756990D01*
X106279958Y-40709371D01*
X106375196Y-40661752D01*
X106422815Y-40614133D01*
X106470434Y-40518895D01*
X106470434Y-40423657D01*
X106422815Y-40328419D01*
X106375196Y-40280800D01*
X106279958Y-40233180D01*
X106041862Y-40233180D01*
X105899005Y-40280800D01*
X105565672Y-40233180D02*
X105327577Y-41233180D01*
X105137101Y-40518895D01*
X104946624Y-41233180D01*
X104708529Y-40233180D01*
X103803767Y-41233180D02*
X104375196Y-41233180D01*
X104089481Y-41233180D02*
X104089481Y-40233180D01*
X104184720Y-40376038D01*
X104279958Y-40471276D01*
X104375196Y-40518895D01*
X102190476Y-40802380D02*
X102523809Y-40326190D01*
X102761904Y-40802380D02*
X102761904Y-39802380D01*
X102380952Y-39802380D01*
X102285714Y-39850000D01*
X102238095Y-39897619D01*
X102190476Y-39992857D01*
X102190476Y-40135714D01*
X102238095Y-40230952D01*
X102285714Y-40278571D01*
X102380952Y-40326190D01*
X102761904Y-40326190D01*
X101761904Y-40802380D02*
X101761904Y-39802380D01*
X101190476Y-40802380D01*
X101190476Y-39802380D01*
X100190476Y-40802380D02*
X100761904Y-40802380D01*
X100476190Y-40802380D02*
X100476190Y-39802380D01*
X100571428Y-39945238D01*
X100666666Y-40040476D01*
X100761904Y-40088095D01*
X109015476Y-35602380D02*
X109348809Y-35126190D01*
X109586904Y-35602380D02*
X109586904Y-34602380D01*
X109205952Y-34602380D01*
X109110714Y-34650000D01*
X109063095Y-34697619D01*
X109015476Y-34792857D01*
X109015476Y-34935714D01*
X109063095Y-35030952D01*
X109110714Y-35078571D01*
X109205952Y-35126190D01*
X109586904Y-35126190D01*
X108586904Y-35602380D02*
X108586904Y-34602380D01*
X108015476Y-35602380D01*
X108015476Y-34602380D01*
X107586904Y-34697619D02*
X107539285Y-34650000D01*
X107444047Y-34602380D01*
X107205952Y-34602380D01*
X107110714Y-34650000D01*
X107063095Y-34697619D01*
X107015476Y-34792857D01*
X107015476Y-34888095D01*
X107063095Y-35030952D01*
X107634523Y-35602380D01*
X107015476Y-35602380D01*
M02*
