G04 #@! TF.GenerationSoftware,KiCad,Pcbnew,(5.1.5)-3*
G04 #@! TF.CreationDate,2020-10-24T11:26:36-07:00*
G04 #@! TF.ProjectId,xmas_heart_2020,786d6173-5f68-4656-9172-745f32303230,rev?*
G04 #@! TF.SameCoordinates,Original*
G04 #@! TF.FileFunction,Paste,Bot*
G04 #@! TF.FilePolarity,Positive*
%FSLAX46Y46*%
G04 Gerber Fmt 4.6, Leading zero omitted, Abs format (unit mm)*
G04 Created by KiCad (PCBNEW (5.1.5)-3) date 2020-10-24 11:26:36*
%MOMM*%
%LPD*%
G04 APERTURE LIST*
%ADD10C,0.100000*%
%ADD11C,5.000000*%
%ADD12R,1.200000X2.500000*%
%ADD13R,0.900000X0.400000*%
G04 APERTURE END LIST*
D10*
G36*
X123972934Y-36091689D02*
G01*
X120366689Y-39697934D01*
X118598922Y-37930167D01*
X122205167Y-34323922D01*
X123972934Y-36091689D01*
G37*
G36*
X111351078Y-23469833D02*
G01*
X107744833Y-27076078D01*
X105977066Y-25308311D01*
X109583311Y-21702066D01*
X111351078Y-23469833D01*
G37*
D11*
X114975000Y-30700000D03*
D10*
G36*
X100640091Y-21702066D02*
G01*
X104246336Y-25308311D01*
X102478569Y-27076078D01*
X98872324Y-23469833D01*
X100640091Y-21702066D01*
G37*
G36*
X88018235Y-34323922D02*
G01*
X91624480Y-37930167D01*
X89856713Y-39697934D01*
X86250468Y-36091689D01*
X88018235Y-34323922D01*
G37*
D11*
X95248402Y-30700000D03*
D12*
X102611701Y-51100000D03*
X105111701Y-51100000D03*
X107611701Y-51100000D03*
X107611701Y-45600000D03*
X102611701Y-45600000D03*
X105111701Y-45600000D03*
D13*
X100650000Y-38150000D03*
X100650000Y-37350000D03*
X100650000Y-38950000D03*
X100650000Y-36550000D03*
X102350000Y-38950000D03*
X102350000Y-38150000D03*
X102350000Y-37350000D03*
X102350000Y-36550000D03*
X107475000Y-38950000D03*
X107475000Y-38150000D03*
X107475000Y-37350000D03*
X107475000Y-36550000D03*
X109175000Y-38950000D03*
X109175000Y-36550000D03*
X109175000Y-38150000D03*
X109175000Y-37350000D03*
M02*
