G04 #@! TF.GenerationSoftware,KiCad,Pcbnew,(5.1.5)-3*
G04 #@! TF.CreationDate,2020-10-24T11:26:36-07:00*
G04 #@! TF.ProjectId,xmas_heart_2020,786d6173-5f68-4656-9172-745f32303230,rev?*
G04 #@! TF.SameCoordinates,Original*
G04 #@! TF.FileFunction,Paste,Top*
G04 #@! TF.FilePolarity,Positive*
%FSLAX46Y46*%
G04 Gerber Fmt 4.6, Leading zero omitted, Abs format (unit mm)*
G04 Created by KiCad (PCBNEW (5.1.5)-3) date 2020-10-24 11:26:36*
%MOMM*%
%LPD*%
G04 APERTURE LIST*
%ADD10C,0.100000*%
G04 APERTURE END LIST*
D10*
G36*
X89965191Y-24501053D02*
G01*
X89986426Y-24504203D01*
X90007250Y-24509419D01*
X90027462Y-24516651D01*
X90046868Y-24525830D01*
X90065281Y-24536866D01*
X90082524Y-24549654D01*
X90098430Y-24564070D01*
X90112846Y-24579976D01*
X90125634Y-24597219D01*
X90136670Y-24615632D01*
X90145849Y-24635038D01*
X90153081Y-24655250D01*
X90158297Y-24676074D01*
X90161447Y-24697309D01*
X90162500Y-24718750D01*
X90162500Y-25231250D01*
X90161447Y-25252691D01*
X90158297Y-25273926D01*
X90153081Y-25294750D01*
X90145849Y-25314962D01*
X90136670Y-25334368D01*
X90125634Y-25352781D01*
X90112846Y-25370024D01*
X90098430Y-25385930D01*
X90082524Y-25400346D01*
X90065281Y-25413134D01*
X90046868Y-25424170D01*
X90027462Y-25433349D01*
X90007250Y-25440581D01*
X89986426Y-25445797D01*
X89965191Y-25448947D01*
X89943750Y-25450000D01*
X89506250Y-25450000D01*
X89484809Y-25448947D01*
X89463574Y-25445797D01*
X89442750Y-25440581D01*
X89422538Y-25433349D01*
X89403132Y-25424170D01*
X89384719Y-25413134D01*
X89367476Y-25400346D01*
X89351570Y-25385930D01*
X89337154Y-25370024D01*
X89324366Y-25352781D01*
X89313330Y-25334368D01*
X89304151Y-25314962D01*
X89296919Y-25294750D01*
X89291703Y-25273926D01*
X89288553Y-25252691D01*
X89287500Y-25231250D01*
X89287500Y-24718750D01*
X89288553Y-24697309D01*
X89291703Y-24676074D01*
X89296919Y-24655250D01*
X89304151Y-24635038D01*
X89313330Y-24615632D01*
X89324366Y-24597219D01*
X89337154Y-24579976D01*
X89351570Y-24564070D01*
X89367476Y-24549654D01*
X89384719Y-24536866D01*
X89403132Y-24525830D01*
X89422538Y-24516651D01*
X89442750Y-24509419D01*
X89463574Y-24504203D01*
X89484809Y-24501053D01*
X89506250Y-24500000D01*
X89943750Y-24500000D01*
X89965191Y-24501053D01*
G37*
G36*
X91540191Y-24501053D02*
G01*
X91561426Y-24504203D01*
X91582250Y-24509419D01*
X91602462Y-24516651D01*
X91621868Y-24525830D01*
X91640281Y-24536866D01*
X91657524Y-24549654D01*
X91673430Y-24564070D01*
X91687846Y-24579976D01*
X91700634Y-24597219D01*
X91711670Y-24615632D01*
X91720849Y-24635038D01*
X91728081Y-24655250D01*
X91733297Y-24676074D01*
X91736447Y-24697309D01*
X91737500Y-24718750D01*
X91737500Y-25231250D01*
X91736447Y-25252691D01*
X91733297Y-25273926D01*
X91728081Y-25294750D01*
X91720849Y-25314962D01*
X91711670Y-25334368D01*
X91700634Y-25352781D01*
X91687846Y-25370024D01*
X91673430Y-25385930D01*
X91657524Y-25400346D01*
X91640281Y-25413134D01*
X91621868Y-25424170D01*
X91602462Y-25433349D01*
X91582250Y-25440581D01*
X91561426Y-25445797D01*
X91540191Y-25448947D01*
X91518750Y-25450000D01*
X91081250Y-25450000D01*
X91059809Y-25448947D01*
X91038574Y-25445797D01*
X91017750Y-25440581D01*
X90997538Y-25433349D01*
X90978132Y-25424170D01*
X90959719Y-25413134D01*
X90942476Y-25400346D01*
X90926570Y-25385930D01*
X90912154Y-25370024D01*
X90899366Y-25352781D01*
X90888330Y-25334368D01*
X90879151Y-25314962D01*
X90871919Y-25294750D01*
X90866703Y-25273926D01*
X90863553Y-25252691D01*
X90862500Y-25231250D01*
X90862500Y-24718750D01*
X90863553Y-24697309D01*
X90866703Y-24676074D01*
X90871919Y-24655250D01*
X90879151Y-24635038D01*
X90888330Y-24615632D01*
X90899366Y-24597219D01*
X90912154Y-24579976D01*
X90926570Y-24564070D01*
X90942476Y-24549654D01*
X90959719Y-24536866D01*
X90978132Y-24525830D01*
X90997538Y-24516651D01*
X91017750Y-24509419D01*
X91038574Y-24504203D01*
X91059809Y-24501053D01*
X91081250Y-24500000D01*
X91518750Y-24500000D01*
X91540191Y-24501053D01*
G37*
G36*
X115990191Y-22326053D02*
G01*
X116011426Y-22329203D01*
X116032250Y-22334419D01*
X116052462Y-22341651D01*
X116071868Y-22350830D01*
X116090281Y-22361866D01*
X116107524Y-22374654D01*
X116123430Y-22389070D01*
X116137846Y-22404976D01*
X116150634Y-22422219D01*
X116161670Y-22440632D01*
X116170849Y-22460038D01*
X116178081Y-22480250D01*
X116183297Y-22501074D01*
X116186447Y-22522309D01*
X116187500Y-22543750D01*
X116187500Y-23056250D01*
X116186447Y-23077691D01*
X116183297Y-23098926D01*
X116178081Y-23119750D01*
X116170849Y-23139962D01*
X116161670Y-23159368D01*
X116150634Y-23177781D01*
X116137846Y-23195024D01*
X116123430Y-23210930D01*
X116107524Y-23225346D01*
X116090281Y-23238134D01*
X116071868Y-23249170D01*
X116052462Y-23258349D01*
X116032250Y-23265581D01*
X116011426Y-23270797D01*
X115990191Y-23273947D01*
X115968750Y-23275000D01*
X115531250Y-23275000D01*
X115509809Y-23273947D01*
X115488574Y-23270797D01*
X115467750Y-23265581D01*
X115447538Y-23258349D01*
X115428132Y-23249170D01*
X115409719Y-23238134D01*
X115392476Y-23225346D01*
X115376570Y-23210930D01*
X115362154Y-23195024D01*
X115349366Y-23177781D01*
X115338330Y-23159368D01*
X115329151Y-23139962D01*
X115321919Y-23119750D01*
X115316703Y-23098926D01*
X115313553Y-23077691D01*
X115312500Y-23056250D01*
X115312500Y-22543750D01*
X115313553Y-22522309D01*
X115316703Y-22501074D01*
X115321919Y-22480250D01*
X115329151Y-22460038D01*
X115338330Y-22440632D01*
X115349366Y-22422219D01*
X115362154Y-22404976D01*
X115376570Y-22389070D01*
X115392476Y-22374654D01*
X115409719Y-22361866D01*
X115428132Y-22350830D01*
X115447538Y-22341651D01*
X115467750Y-22334419D01*
X115488574Y-22329203D01*
X115509809Y-22326053D01*
X115531250Y-22325000D01*
X115968750Y-22325000D01*
X115990191Y-22326053D01*
G37*
G36*
X117565191Y-22326053D02*
G01*
X117586426Y-22329203D01*
X117607250Y-22334419D01*
X117627462Y-22341651D01*
X117646868Y-22350830D01*
X117665281Y-22361866D01*
X117682524Y-22374654D01*
X117698430Y-22389070D01*
X117712846Y-22404976D01*
X117725634Y-22422219D01*
X117736670Y-22440632D01*
X117745849Y-22460038D01*
X117753081Y-22480250D01*
X117758297Y-22501074D01*
X117761447Y-22522309D01*
X117762500Y-22543750D01*
X117762500Y-23056250D01*
X117761447Y-23077691D01*
X117758297Y-23098926D01*
X117753081Y-23119750D01*
X117745849Y-23139962D01*
X117736670Y-23159368D01*
X117725634Y-23177781D01*
X117712846Y-23195024D01*
X117698430Y-23210930D01*
X117682524Y-23225346D01*
X117665281Y-23238134D01*
X117646868Y-23249170D01*
X117627462Y-23258349D01*
X117607250Y-23265581D01*
X117586426Y-23270797D01*
X117565191Y-23273947D01*
X117543750Y-23275000D01*
X117106250Y-23275000D01*
X117084809Y-23273947D01*
X117063574Y-23270797D01*
X117042750Y-23265581D01*
X117022538Y-23258349D01*
X117003132Y-23249170D01*
X116984719Y-23238134D01*
X116967476Y-23225346D01*
X116951570Y-23210930D01*
X116937154Y-23195024D01*
X116924366Y-23177781D01*
X116913330Y-23159368D01*
X116904151Y-23139962D01*
X116896919Y-23119750D01*
X116891703Y-23098926D01*
X116888553Y-23077691D01*
X116887500Y-23056250D01*
X116887500Y-22543750D01*
X116888553Y-22522309D01*
X116891703Y-22501074D01*
X116896919Y-22480250D01*
X116904151Y-22460038D01*
X116913330Y-22440632D01*
X116924366Y-22422219D01*
X116937154Y-22404976D01*
X116951570Y-22389070D01*
X116967476Y-22374654D01*
X116984719Y-22361866D01*
X117003132Y-22350830D01*
X117022538Y-22341651D01*
X117042750Y-22334419D01*
X117063574Y-22329203D01*
X117084809Y-22326053D01*
X117106250Y-22325000D01*
X117543750Y-22325000D01*
X117565191Y-22326053D01*
G37*
G36*
X87577691Y-30551053D02*
G01*
X87598926Y-30554203D01*
X87619750Y-30559419D01*
X87639962Y-30566651D01*
X87659368Y-30575830D01*
X87677781Y-30586866D01*
X87695024Y-30599654D01*
X87710930Y-30614070D01*
X87725346Y-30629976D01*
X87738134Y-30647219D01*
X87749170Y-30665632D01*
X87758349Y-30685038D01*
X87765581Y-30705250D01*
X87770797Y-30726074D01*
X87773947Y-30747309D01*
X87775000Y-30768750D01*
X87775000Y-31281250D01*
X87773947Y-31302691D01*
X87770797Y-31323926D01*
X87765581Y-31344750D01*
X87758349Y-31364962D01*
X87749170Y-31384368D01*
X87738134Y-31402781D01*
X87725346Y-31420024D01*
X87710930Y-31435930D01*
X87695024Y-31450346D01*
X87677781Y-31463134D01*
X87659368Y-31474170D01*
X87639962Y-31483349D01*
X87619750Y-31490581D01*
X87598926Y-31495797D01*
X87577691Y-31498947D01*
X87556250Y-31500000D01*
X87118750Y-31500000D01*
X87097309Y-31498947D01*
X87076074Y-31495797D01*
X87055250Y-31490581D01*
X87035038Y-31483349D01*
X87015632Y-31474170D01*
X86997219Y-31463134D01*
X86979976Y-31450346D01*
X86964070Y-31435930D01*
X86949654Y-31420024D01*
X86936866Y-31402781D01*
X86925830Y-31384368D01*
X86916651Y-31364962D01*
X86909419Y-31344750D01*
X86904203Y-31323926D01*
X86901053Y-31302691D01*
X86900000Y-31281250D01*
X86900000Y-30768750D01*
X86901053Y-30747309D01*
X86904203Y-30726074D01*
X86909419Y-30705250D01*
X86916651Y-30685038D01*
X86925830Y-30665632D01*
X86936866Y-30647219D01*
X86949654Y-30629976D01*
X86964070Y-30614070D01*
X86979976Y-30599654D01*
X86997219Y-30586866D01*
X87015632Y-30575830D01*
X87035038Y-30566651D01*
X87055250Y-30559419D01*
X87076074Y-30554203D01*
X87097309Y-30551053D01*
X87118750Y-30550000D01*
X87556250Y-30550000D01*
X87577691Y-30551053D01*
G37*
G36*
X89152691Y-30551053D02*
G01*
X89173926Y-30554203D01*
X89194750Y-30559419D01*
X89214962Y-30566651D01*
X89234368Y-30575830D01*
X89252781Y-30586866D01*
X89270024Y-30599654D01*
X89285930Y-30614070D01*
X89300346Y-30629976D01*
X89313134Y-30647219D01*
X89324170Y-30665632D01*
X89333349Y-30685038D01*
X89340581Y-30705250D01*
X89345797Y-30726074D01*
X89348947Y-30747309D01*
X89350000Y-30768750D01*
X89350000Y-31281250D01*
X89348947Y-31302691D01*
X89345797Y-31323926D01*
X89340581Y-31344750D01*
X89333349Y-31364962D01*
X89324170Y-31384368D01*
X89313134Y-31402781D01*
X89300346Y-31420024D01*
X89285930Y-31435930D01*
X89270024Y-31450346D01*
X89252781Y-31463134D01*
X89234368Y-31474170D01*
X89214962Y-31483349D01*
X89194750Y-31490581D01*
X89173926Y-31495797D01*
X89152691Y-31498947D01*
X89131250Y-31500000D01*
X88693750Y-31500000D01*
X88672309Y-31498947D01*
X88651074Y-31495797D01*
X88630250Y-31490581D01*
X88610038Y-31483349D01*
X88590632Y-31474170D01*
X88572219Y-31463134D01*
X88554976Y-31450346D01*
X88539070Y-31435930D01*
X88524654Y-31420024D01*
X88511866Y-31402781D01*
X88500830Y-31384368D01*
X88491651Y-31364962D01*
X88484419Y-31344750D01*
X88479203Y-31323926D01*
X88476053Y-31302691D01*
X88475000Y-31281250D01*
X88475000Y-30768750D01*
X88476053Y-30747309D01*
X88479203Y-30726074D01*
X88484419Y-30705250D01*
X88491651Y-30685038D01*
X88500830Y-30665632D01*
X88511866Y-30647219D01*
X88524654Y-30629976D01*
X88539070Y-30614070D01*
X88554976Y-30599654D01*
X88572219Y-30586866D01*
X88590632Y-30575830D01*
X88610038Y-30566651D01*
X88630250Y-30559419D01*
X88651074Y-30554203D01*
X88672309Y-30551053D01*
X88693750Y-30550000D01*
X89131250Y-30550000D01*
X89152691Y-30551053D01*
G37*
G36*
X121690191Y-30726053D02*
G01*
X121711426Y-30729203D01*
X121732250Y-30734419D01*
X121752462Y-30741651D01*
X121771868Y-30750830D01*
X121790281Y-30761866D01*
X121807524Y-30774654D01*
X121823430Y-30789070D01*
X121837846Y-30804976D01*
X121850634Y-30822219D01*
X121861670Y-30840632D01*
X121870849Y-30860038D01*
X121878081Y-30880250D01*
X121883297Y-30901074D01*
X121886447Y-30922309D01*
X121887500Y-30943750D01*
X121887500Y-31456250D01*
X121886447Y-31477691D01*
X121883297Y-31498926D01*
X121878081Y-31519750D01*
X121870849Y-31539962D01*
X121861670Y-31559368D01*
X121850634Y-31577781D01*
X121837846Y-31595024D01*
X121823430Y-31610930D01*
X121807524Y-31625346D01*
X121790281Y-31638134D01*
X121771868Y-31649170D01*
X121752462Y-31658349D01*
X121732250Y-31665581D01*
X121711426Y-31670797D01*
X121690191Y-31673947D01*
X121668750Y-31675000D01*
X121231250Y-31675000D01*
X121209809Y-31673947D01*
X121188574Y-31670797D01*
X121167750Y-31665581D01*
X121147538Y-31658349D01*
X121128132Y-31649170D01*
X121109719Y-31638134D01*
X121092476Y-31625346D01*
X121076570Y-31610930D01*
X121062154Y-31595024D01*
X121049366Y-31577781D01*
X121038330Y-31559368D01*
X121029151Y-31539962D01*
X121021919Y-31519750D01*
X121016703Y-31498926D01*
X121013553Y-31477691D01*
X121012500Y-31456250D01*
X121012500Y-30943750D01*
X121013553Y-30922309D01*
X121016703Y-30901074D01*
X121021919Y-30880250D01*
X121029151Y-30860038D01*
X121038330Y-30840632D01*
X121049366Y-30822219D01*
X121062154Y-30804976D01*
X121076570Y-30789070D01*
X121092476Y-30774654D01*
X121109719Y-30761866D01*
X121128132Y-30750830D01*
X121147538Y-30741651D01*
X121167750Y-30734419D01*
X121188574Y-30729203D01*
X121209809Y-30726053D01*
X121231250Y-30725000D01*
X121668750Y-30725000D01*
X121690191Y-30726053D01*
G37*
G36*
X123265191Y-30726053D02*
G01*
X123286426Y-30729203D01*
X123307250Y-30734419D01*
X123327462Y-30741651D01*
X123346868Y-30750830D01*
X123365281Y-30761866D01*
X123382524Y-30774654D01*
X123398430Y-30789070D01*
X123412846Y-30804976D01*
X123425634Y-30822219D01*
X123436670Y-30840632D01*
X123445849Y-30860038D01*
X123453081Y-30880250D01*
X123458297Y-30901074D01*
X123461447Y-30922309D01*
X123462500Y-30943750D01*
X123462500Y-31456250D01*
X123461447Y-31477691D01*
X123458297Y-31498926D01*
X123453081Y-31519750D01*
X123445849Y-31539962D01*
X123436670Y-31559368D01*
X123425634Y-31577781D01*
X123412846Y-31595024D01*
X123398430Y-31610930D01*
X123382524Y-31625346D01*
X123365281Y-31638134D01*
X123346868Y-31649170D01*
X123327462Y-31658349D01*
X123307250Y-31665581D01*
X123286426Y-31670797D01*
X123265191Y-31673947D01*
X123243750Y-31675000D01*
X122806250Y-31675000D01*
X122784809Y-31673947D01*
X122763574Y-31670797D01*
X122742750Y-31665581D01*
X122722538Y-31658349D01*
X122703132Y-31649170D01*
X122684719Y-31638134D01*
X122667476Y-31625346D01*
X122651570Y-31610930D01*
X122637154Y-31595024D01*
X122624366Y-31577781D01*
X122613330Y-31559368D01*
X122604151Y-31539962D01*
X122596919Y-31519750D01*
X122591703Y-31498926D01*
X122588553Y-31477691D01*
X122587500Y-31456250D01*
X122587500Y-30943750D01*
X122588553Y-30922309D01*
X122591703Y-30901074D01*
X122596919Y-30880250D01*
X122604151Y-30860038D01*
X122613330Y-30840632D01*
X122624366Y-30822219D01*
X122637154Y-30804976D01*
X122651570Y-30789070D01*
X122667476Y-30774654D01*
X122684719Y-30761866D01*
X122703132Y-30750830D01*
X122722538Y-30741651D01*
X122742750Y-30734419D01*
X122763574Y-30729203D01*
X122784809Y-30726053D01*
X122806250Y-30725000D01*
X123243750Y-30725000D01*
X123265191Y-30726053D01*
G37*
G36*
X98540191Y-34876053D02*
G01*
X98561426Y-34879203D01*
X98582250Y-34884419D01*
X98602462Y-34891651D01*
X98621868Y-34900830D01*
X98640281Y-34911866D01*
X98657524Y-34924654D01*
X98673430Y-34939070D01*
X98687846Y-34954976D01*
X98700634Y-34972219D01*
X98711670Y-34990632D01*
X98720849Y-35010038D01*
X98728081Y-35030250D01*
X98733297Y-35051074D01*
X98736447Y-35072309D01*
X98737500Y-35093750D01*
X98737500Y-35606250D01*
X98736447Y-35627691D01*
X98733297Y-35648926D01*
X98728081Y-35669750D01*
X98720849Y-35689962D01*
X98711670Y-35709368D01*
X98700634Y-35727781D01*
X98687846Y-35745024D01*
X98673430Y-35760930D01*
X98657524Y-35775346D01*
X98640281Y-35788134D01*
X98621868Y-35799170D01*
X98602462Y-35808349D01*
X98582250Y-35815581D01*
X98561426Y-35820797D01*
X98540191Y-35823947D01*
X98518750Y-35825000D01*
X98081250Y-35825000D01*
X98059809Y-35823947D01*
X98038574Y-35820797D01*
X98017750Y-35815581D01*
X97997538Y-35808349D01*
X97978132Y-35799170D01*
X97959719Y-35788134D01*
X97942476Y-35775346D01*
X97926570Y-35760930D01*
X97912154Y-35745024D01*
X97899366Y-35727781D01*
X97888330Y-35709368D01*
X97879151Y-35689962D01*
X97871919Y-35669750D01*
X97866703Y-35648926D01*
X97863553Y-35627691D01*
X97862500Y-35606250D01*
X97862500Y-35093750D01*
X97863553Y-35072309D01*
X97866703Y-35051074D01*
X97871919Y-35030250D01*
X97879151Y-35010038D01*
X97888330Y-34990632D01*
X97899366Y-34972219D01*
X97912154Y-34954976D01*
X97926570Y-34939070D01*
X97942476Y-34924654D01*
X97959719Y-34911866D01*
X97978132Y-34900830D01*
X97997538Y-34891651D01*
X98017750Y-34884419D01*
X98038574Y-34879203D01*
X98059809Y-34876053D01*
X98081250Y-34875000D01*
X98518750Y-34875000D01*
X98540191Y-34876053D01*
G37*
G36*
X100115191Y-34876053D02*
G01*
X100136426Y-34879203D01*
X100157250Y-34884419D01*
X100177462Y-34891651D01*
X100196868Y-34900830D01*
X100215281Y-34911866D01*
X100232524Y-34924654D01*
X100248430Y-34939070D01*
X100262846Y-34954976D01*
X100275634Y-34972219D01*
X100286670Y-34990632D01*
X100295849Y-35010038D01*
X100303081Y-35030250D01*
X100308297Y-35051074D01*
X100311447Y-35072309D01*
X100312500Y-35093750D01*
X100312500Y-35606250D01*
X100311447Y-35627691D01*
X100308297Y-35648926D01*
X100303081Y-35669750D01*
X100295849Y-35689962D01*
X100286670Y-35709368D01*
X100275634Y-35727781D01*
X100262846Y-35745024D01*
X100248430Y-35760930D01*
X100232524Y-35775346D01*
X100215281Y-35788134D01*
X100196868Y-35799170D01*
X100177462Y-35808349D01*
X100157250Y-35815581D01*
X100136426Y-35820797D01*
X100115191Y-35823947D01*
X100093750Y-35825000D01*
X99656250Y-35825000D01*
X99634809Y-35823947D01*
X99613574Y-35820797D01*
X99592750Y-35815581D01*
X99572538Y-35808349D01*
X99553132Y-35799170D01*
X99534719Y-35788134D01*
X99517476Y-35775346D01*
X99501570Y-35760930D01*
X99487154Y-35745024D01*
X99474366Y-35727781D01*
X99463330Y-35709368D01*
X99454151Y-35689962D01*
X99446919Y-35669750D01*
X99441703Y-35648926D01*
X99438553Y-35627691D01*
X99437500Y-35606250D01*
X99437500Y-35093750D01*
X99438553Y-35072309D01*
X99441703Y-35051074D01*
X99446919Y-35030250D01*
X99454151Y-35010038D01*
X99463330Y-34990632D01*
X99474366Y-34972219D01*
X99487154Y-34954976D01*
X99501570Y-34939070D01*
X99517476Y-34924654D01*
X99534719Y-34911866D01*
X99553132Y-34900830D01*
X99572538Y-34891651D01*
X99592750Y-34884419D01*
X99613574Y-34879203D01*
X99634809Y-34876053D01*
X99656250Y-34875000D01*
X100093750Y-34875000D01*
X100115191Y-34876053D01*
G37*
G36*
X112152691Y-35226053D02*
G01*
X112173926Y-35229203D01*
X112194750Y-35234419D01*
X112214962Y-35241651D01*
X112234368Y-35250830D01*
X112252781Y-35261866D01*
X112270024Y-35274654D01*
X112285930Y-35289070D01*
X112300346Y-35304976D01*
X112313134Y-35322219D01*
X112324170Y-35340632D01*
X112333349Y-35360038D01*
X112340581Y-35380250D01*
X112345797Y-35401074D01*
X112348947Y-35422309D01*
X112350000Y-35443750D01*
X112350000Y-35956250D01*
X112348947Y-35977691D01*
X112345797Y-35998926D01*
X112340581Y-36019750D01*
X112333349Y-36039962D01*
X112324170Y-36059368D01*
X112313134Y-36077781D01*
X112300346Y-36095024D01*
X112285930Y-36110930D01*
X112270024Y-36125346D01*
X112252781Y-36138134D01*
X112234368Y-36149170D01*
X112214962Y-36158349D01*
X112194750Y-36165581D01*
X112173926Y-36170797D01*
X112152691Y-36173947D01*
X112131250Y-36175000D01*
X111693750Y-36175000D01*
X111672309Y-36173947D01*
X111651074Y-36170797D01*
X111630250Y-36165581D01*
X111610038Y-36158349D01*
X111590632Y-36149170D01*
X111572219Y-36138134D01*
X111554976Y-36125346D01*
X111539070Y-36110930D01*
X111524654Y-36095024D01*
X111511866Y-36077781D01*
X111500830Y-36059368D01*
X111491651Y-36039962D01*
X111484419Y-36019750D01*
X111479203Y-35998926D01*
X111476053Y-35977691D01*
X111475000Y-35956250D01*
X111475000Y-35443750D01*
X111476053Y-35422309D01*
X111479203Y-35401074D01*
X111484419Y-35380250D01*
X111491651Y-35360038D01*
X111500830Y-35340632D01*
X111511866Y-35322219D01*
X111524654Y-35304976D01*
X111539070Y-35289070D01*
X111554976Y-35274654D01*
X111572219Y-35261866D01*
X111590632Y-35250830D01*
X111610038Y-35241651D01*
X111630250Y-35234419D01*
X111651074Y-35229203D01*
X111672309Y-35226053D01*
X111693750Y-35225000D01*
X112131250Y-35225000D01*
X112152691Y-35226053D01*
G37*
G36*
X113727691Y-35226053D02*
G01*
X113748926Y-35229203D01*
X113769750Y-35234419D01*
X113789962Y-35241651D01*
X113809368Y-35250830D01*
X113827781Y-35261866D01*
X113845024Y-35274654D01*
X113860930Y-35289070D01*
X113875346Y-35304976D01*
X113888134Y-35322219D01*
X113899170Y-35340632D01*
X113908349Y-35360038D01*
X113915581Y-35380250D01*
X113920797Y-35401074D01*
X113923947Y-35422309D01*
X113925000Y-35443750D01*
X113925000Y-35956250D01*
X113923947Y-35977691D01*
X113920797Y-35998926D01*
X113915581Y-36019750D01*
X113908349Y-36039962D01*
X113899170Y-36059368D01*
X113888134Y-36077781D01*
X113875346Y-36095024D01*
X113860930Y-36110930D01*
X113845024Y-36125346D01*
X113827781Y-36138134D01*
X113809368Y-36149170D01*
X113789962Y-36158349D01*
X113769750Y-36165581D01*
X113748926Y-36170797D01*
X113727691Y-36173947D01*
X113706250Y-36175000D01*
X113268750Y-36175000D01*
X113247309Y-36173947D01*
X113226074Y-36170797D01*
X113205250Y-36165581D01*
X113185038Y-36158349D01*
X113165632Y-36149170D01*
X113147219Y-36138134D01*
X113129976Y-36125346D01*
X113114070Y-36110930D01*
X113099654Y-36095024D01*
X113086866Y-36077781D01*
X113075830Y-36059368D01*
X113066651Y-36039962D01*
X113059419Y-36019750D01*
X113054203Y-35998926D01*
X113051053Y-35977691D01*
X113050000Y-35956250D01*
X113050000Y-35443750D01*
X113051053Y-35422309D01*
X113054203Y-35401074D01*
X113059419Y-35380250D01*
X113066651Y-35360038D01*
X113075830Y-35340632D01*
X113086866Y-35322219D01*
X113099654Y-35304976D01*
X113114070Y-35289070D01*
X113129976Y-35274654D01*
X113147219Y-35261866D01*
X113165632Y-35250830D01*
X113185038Y-35241651D01*
X113205250Y-35234419D01*
X113226074Y-35229203D01*
X113247309Y-35226053D01*
X113268750Y-35225000D01*
X113706250Y-35225000D01*
X113727691Y-35226053D01*
G37*
G36*
X96502691Y-44376053D02*
G01*
X96523926Y-44379203D01*
X96544750Y-44384419D01*
X96564962Y-44391651D01*
X96584368Y-44400830D01*
X96602781Y-44411866D01*
X96620024Y-44424654D01*
X96635930Y-44439070D01*
X96650346Y-44454976D01*
X96663134Y-44472219D01*
X96674170Y-44490632D01*
X96683349Y-44510038D01*
X96690581Y-44530250D01*
X96695797Y-44551074D01*
X96698947Y-44572309D01*
X96700000Y-44593750D01*
X96700000Y-45106250D01*
X96698947Y-45127691D01*
X96695797Y-45148926D01*
X96690581Y-45169750D01*
X96683349Y-45189962D01*
X96674170Y-45209368D01*
X96663134Y-45227781D01*
X96650346Y-45245024D01*
X96635930Y-45260930D01*
X96620024Y-45275346D01*
X96602781Y-45288134D01*
X96584368Y-45299170D01*
X96564962Y-45308349D01*
X96544750Y-45315581D01*
X96523926Y-45320797D01*
X96502691Y-45323947D01*
X96481250Y-45325000D01*
X96043750Y-45325000D01*
X96022309Y-45323947D01*
X96001074Y-45320797D01*
X95980250Y-45315581D01*
X95960038Y-45308349D01*
X95940632Y-45299170D01*
X95922219Y-45288134D01*
X95904976Y-45275346D01*
X95889070Y-45260930D01*
X95874654Y-45245024D01*
X95861866Y-45227781D01*
X95850830Y-45209368D01*
X95841651Y-45189962D01*
X95834419Y-45169750D01*
X95829203Y-45148926D01*
X95826053Y-45127691D01*
X95825000Y-45106250D01*
X95825000Y-44593750D01*
X95826053Y-44572309D01*
X95829203Y-44551074D01*
X95834419Y-44530250D01*
X95841651Y-44510038D01*
X95850830Y-44490632D01*
X95861866Y-44472219D01*
X95874654Y-44454976D01*
X95889070Y-44439070D01*
X95904976Y-44424654D01*
X95922219Y-44411866D01*
X95940632Y-44400830D01*
X95960038Y-44391651D01*
X95980250Y-44384419D01*
X96001074Y-44379203D01*
X96022309Y-44376053D01*
X96043750Y-44375000D01*
X96481250Y-44375000D01*
X96502691Y-44376053D01*
G37*
G36*
X98077691Y-44376053D02*
G01*
X98098926Y-44379203D01*
X98119750Y-44384419D01*
X98139962Y-44391651D01*
X98159368Y-44400830D01*
X98177781Y-44411866D01*
X98195024Y-44424654D01*
X98210930Y-44439070D01*
X98225346Y-44454976D01*
X98238134Y-44472219D01*
X98249170Y-44490632D01*
X98258349Y-44510038D01*
X98265581Y-44530250D01*
X98270797Y-44551074D01*
X98273947Y-44572309D01*
X98275000Y-44593750D01*
X98275000Y-45106250D01*
X98273947Y-45127691D01*
X98270797Y-45148926D01*
X98265581Y-45169750D01*
X98258349Y-45189962D01*
X98249170Y-45209368D01*
X98238134Y-45227781D01*
X98225346Y-45245024D01*
X98210930Y-45260930D01*
X98195024Y-45275346D01*
X98177781Y-45288134D01*
X98159368Y-45299170D01*
X98139962Y-45308349D01*
X98119750Y-45315581D01*
X98098926Y-45320797D01*
X98077691Y-45323947D01*
X98056250Y-45325000D01*
X97618750Y-45325000D01*
X97597309Y-45323947D01*
X97576074Y-45320797D01*
X97555250Y-45315581D01*
X97535038Y-45308349D01*
X97515632Y-45299170D01*
X97497219Y-45288134D01*
X97479976Y-45275346D01*
X97464070Y-45260930D01*
X97449654Y-45245024D01*
X97436866Y-45227781D01*
X97425830Y-45209368D01*
X97416651Y-45189962D01*
X97409419Y-45169750D01*
X97404203Y-45148926D01*
X97401053Y-45127691D01*
X97400000Y-45106250D01*
X97400000Y-44593750D01*
X97401053Y-44572309D01*
X97404203Y-44551074D01*
X97409419Y-44530250D01*
X97416651Y-44510038D01*
X97425830Y-44490632D01*
X97436866Y-44472219D01*
X97449654Y-44454976D01*
X97464070Y-44439070D01*
X97479976Y-44424654D01*
X97497219Y-44411866D01*
X97515632Y-44400830D01*
X97535038Y-44391651D01*
X97555250Y-44384419D01*
X97576074Y-44379203D01*
X97597309Y-44376053D01*
X97618750Y-44375000D01*
X98056250Y-44375000D01*
X98077691Y-44376053D01*
G37*
G36*
X112490191Y-44726053D02*
G01*
X112511426Y-44729203D01*
X112532250Y-44734419D01*
X112552462Y-44741651D01*
X112571868Y-44750830D01*
X112590281Y-44761866D01*
X112607524Y-44774654D01*
X112623430Y-44789070D01*
X112637846Y-44804976D01*
X112650634Y-44822219D01*
X112661670Y-44840632D01*
X112670849Y-44860038D01*
X112678081Y-44880250D01*
X112683297Y-44901074D01*
X112686447Y-44922309D01*
X112687500Y-44943750D01*
X112687500Y-45456250D01*
X112686447Y-45477691D01*
X112683297Y-45498926D01*
X112678081Y-45519750D01*
X112670849Y-45539962D01*
X112661670Y-45559368D01*
X112650634Y-45577781D01*
X112637846Y-45595024D01*
X112623430Y-45610930D01*
X112607524Y-45625346D01*
X112590281Y-45638134D01*
X112571868Y-45649170D01*
X112552462Y-45658349D01*
X112532250Y-45665581D01*
X112511426Y-45670797D01*
X112490191Y-45673947D01*
X112468750Y-45675000D01*
X112031250Y-45675000D01*
X112009809Y-45673947D01*
X111988574Y-45670797D01*
X111967750Y-45665581D01*
X111947538Y-45658349D01*
X111928132Y-45649170D01*
X111909719Y-45638134D01*
X111892476Y-45625346D01*
X111876570Y-45610930D01*
X111862154Y-45595024D01*
X111849366Y-45577781D01*
X111838330Y-45559368D01*
X111829151Y-45539962D01*
X111821919Y-45519750D01*
X111816703Y-45498926D01*
X111813553Y-45477691D01*
X111812500Y-45456250D01*
X111812500Y-44943750D01*
X111813553Y-44922309D01*
X111816703Y-44901074D01*
X111821919Y-44880250D01*
X111829151Y-44860038D01*
X111838330Y-44840632D01*
X111849366Y-44822219D01*
X111862154Y-44804976D01*
X111876570Y-44789070D01*
X111892476Y-44774654D01*
X111909719Y-44761866D01*
X111928132Y-44750830D01*
X111947538Y-44741651D01*
X111967750Y-44734419D01*
X111988574Y-44729203D01*
X112009809Y-44726053D01*
X112031250Y-44725000D01*
X112468750Y-44725000D01*
X112490191Y-44726053D01*
G37*
G36*
X114065191Y-44726053D02*
G01*
X114086426Y-44729203D01*
X114107250Y-44734419D01*
X114127462Y-44741651D01*
X114146868Y-44750830D01*
X114165281Y-44761866D01*
X114182524Y-44774654D01*
X114198430Y-44789070D01*
X114212846Y-44804976D01*
X114225634Y-44822219D01*
X114236670Y-44840632D01*
X114245849Y-44860038D01*
X114253081Y-44880250D01*
X114258297Y-44901074D01*
X114261447Y-44922309D01*
X114262500Y-44943750D01*
X114262500Y-45456250D01*
X114261447Y-45477691D01*
X114258297Y-45498926D01*
X114253081Y-45519750D01*
X114245849Y-45539962D01*
X114236670Y-45559368D01*
X114225634Y-45577781D01*
X114212846Y-45595024D01*
X114198430Y-45610930D01*
X114182524Y-45625346D01*
X114165281Y-45638134D01*
X114146868Y-45649170D01*
X114127462Y-45658349D01*
X114107250Y-45665581D01*
X114086426Y-45670797D01*
X114065191Y-45673947D01*
X114043750Y-45675000D01*
X113606250Y-45675000D01*
X113584809Y-45673947D01*
X113563574Y-45670797D01*
X113542750Y-45665581D01*
X113522538Y-45658349D01*
X113503132Y-45649170D01*
X113484719Y-45638134D01*
X113467476Y-45625346D01*
X113451570Y-45610930D01*
X113437154Y-45595024D01*
X113424366Y-45577781D01*
X113413330Y-45559368D01*
X113404151Y-45539962D01*
X113396919Y-45519750D01*
X113391703Y-45498926D01*
X113388553Y-45477691D01*
X113387500Y-45456250D01*
X113387500Y-44943750D01*
X113388553Y-44922309D01*
X113391703Y-44901074D01*
X113396919Y-44880250D01*
X113404151Y-44860038D01*
X113413330Y-44840632D01*
X113424366Y-44822219D01*
X113437154Y-44804976D01*
X113451570Y-44789070D01*
X113467476Y-44774654D01*
X113484719Y-44761866D01*
X113503132Y-44750830D01*
X113522538Y-44741651D01*
X113542750Y-44734419D01*
X113563574Y-44729203D01*
X113584809Y-44726053D01*
X113606250Y-44725000D01*
X114043750Y-44725000D01*
X114065191Y-44726053D01*
G37*
M02*
