G04 #@! TF.GenerationSoftware,KiCad,Pcbnew,(5.1.5)-3*
G04 #@! TF.CreationDate,2020-10-24T11:26:36-07:00*
G04 #@! TF.ProjectId,xmas_heart_2020,786d6173-5f68-4656-9172-745f32303230,rev?*
G04 #@! TF.SameCoordinates,Original*
G04 #@! TF.FileFunction,Soldermask,Top*
G04 #@! TF.FilePolarity,Negative*
%FSLAX46Y46*%
G04 Gerber Fmt 4.6, Leading zero omitted, Abs format (unit mm)*
G04 Created by KiCad (PCBNEW (5.1.5)-3) date 2020-10-24 11:26:36*
%MOMM*%
%LPD*%
G04 APERTURE LIST*
%ADD10C,0.100000*%
G04 APERTURE END LIST*
D10*
G36*
X114167091Y-44678085D02*
G01*
X114201069Y-44688393D01*
X114232390Y-44705134D01*
X114259839Y-44727661D01*
X114282366Y-44755110D01*
X114299107Y-44786431D01*
X114309415Y-44820409D01*
X114313500Y-44861890D01*
X114313500Y-45538110D01*
X114309415Y-45579591D01*
X114299107Y-45613569D01*
X114282366Y-45644890D01*
X114259839Y-45672339D01*
X114232390Y-45694866D01*
X114201069Y-45711607D01*
X114167091Y-45721915D01*
X114125610Y-45726000D01*
X113524390Y-45726000D01*
X113482909Y-45721915D01*
X113448931Y-45711607D01*
X113417610Y-45694866D01*
X113390161Y-45672339D01*
X113367634Y-45644890D01*
X113350893Y-45613569D01*
X113340585Y-45579591D01*
X113336500Y-45538110D01*
X113336500Y-44861890D01*
X113340585Y-44820409D01*
X113350893Y-44786431D01*
X113367634Y-44755110D01*
X113390161Y-44727661D01*
X113417610Y-44705134D01*
X113448931Y-44688393D01*
X113482909Y-44678085D01*
X113524390Y-44674000D01*
X114125610Y-44674000D01*
X114167091Y-44678085D01*
G37*
G36*
X112592091Y-44678085D02*
G01*
X112626069Y-44688393D01*
X112657390Y-44705134D01*
X112684839Y-44727661D01*
X112707366Y-44755110D01*
X112724107Y-44786431D01*
X112734415Y-44820409D01*
X112738500Y-44861890D01*
X112738500Y-45538110D01*
X112734415Y-45579591D01*
X112724107Y-45613569D01*
X112707366Y-45644890D01*
X112684839Y-45672339D01*
X112657390Y-45694866D01*
X112626069Y-45711607D01*
X112592091Y-45721915D01*
X112550610Y-45726000D01*
X111949390Y-45726000D01*
X111907909Y-45721915D01*
X111873931Y-45711607D01*
X111842610Y-45694866D01*
X111815161Y-45672339D01*
X111792634Y-45644890D01*
X111775893Y-45613569D01*
X111765585Y-45579591D01*
X111761500Y-45538110D01*
X111761500Y-44861890D01*
X111765585Y-44820409D01*
X111775893Y-44786431D01*
X111792634Y-44755110D01*
X111815161Y-44727661D01*
X111842610Y-44705134D01*
X111873931Y-44688393D01*
X111907909Y-44678085D01*
X111949390Y-44674000D01*
X112550610Y-44674000D01*
X112592091Y-44678085D01*
G37*
G36*
X96604591Y-44328085D02*
G01*
X96638569Y-44338393D01*
X96669890Y-44355134D01*
X96697339Y-44377661D01*
X96719866Y-44405110D01*
X96736607Y-44436431D01*
X96746915Y-44470409D01*
X96751000Y-44511890D01*
X96751000Y-45188110D01*
X96746915Y-45229591D01*
X96736607Y-45263569D01*
X96719866Y-45294890D01*
X96697339Y-45322339D01*
X96669890Y-45344866D01*
X96638569Y-45361607D01*
X96604591Y-45371915D01*
X96563110Y-45376000D01*
X95961890Y-45376000D01*
X95920409Y-45371915D01*
X95886431Y-45361607D01*
X95855110Y-45344866D01*
X95827661Y-45322339D01*
X95805134Y-45294890D01*
X95788393Y-45263569D01*
X95778085Y-45229591D01*
X95774000Y-45188110D01*
X95774000Y-44511890D01*
X95778085Y-44470409D01*
X95788393Y-44436431D01*
X95805134Y-44405110D01*
X95827661Y-44377661D01*
X95855110Y-44355134D01*
X95886431Y-44338393D01*
X95920409Y-44328085D01*
X95961890Y-44324000D01*
X96563110Y-44324000D01*
X96604591Y-44328085D01*
G37*
G36*
X98179591Y-44328085D02*
G01*
X98213569Y-44338393D01*
X98244890Y-44355134D01*
X98272339Y-44377661D01*
X98294866Y-44405110D01*
X98311607Y-44436431D01*
X98321915Y-44470409D01*
X98326000Y-44511890D01*
X98326000Y-45188110D01*
X98321915Y-45229591D01*
X98311607Y-45263569D01*
X98294866Y-45294890D01*
X98272339Y-45322339D01*
X98244890Y-45344866D01*
X98213569Y-45361607D01*
X98179591Y-45371915D01*
X98138110Y-45376000D01*
X97536890Y-45376000D01*
X97495409Y-45371915D01*
X97461431Y-45361607D01*
X97430110Y-45344866D01*
X97402661Y-45322339D01*
X97380134Y-45294890D01*
X97363393Y-45263569D01*
X97353085Y-45229591D01*
X97349000Y-45188110D01*
X97349000Y-44511890D01*
X97353085Y-44470409D01*
X97363393Y-44436431D01*
X97380134Y-44405110D01*
X97402661Y-44377661D01*
X97430110Y-44355134D01*
X97461431Y-44338393D01*
X97495409Y-44328085D01*
X97536890Y-44324000D01*
X98138110Y-44324000D01*
X98179591Y-44328085D01*
G37*
G36*
X113829591Y-35178085D02*
G01*
X113863569Y-35188393D01*
X113894890Y-35205134D01*
X113922339Y-35227661D01*
X113944866Y-35255110D01*
X113961607Y-35286431D01*
X113971915Y-35320409D01*
X113976000Y-35361890D01*
X113976000Y-36038110D01*
X113971915Y-36079591D01*
X113961607Y-36113569D01*
X113944866Y-36144890D01*
X113922339Y-36172339D01*
X113894890Y-36194866D01*
X113863569Y-36211607D01*
X113829591Y-36221915D01*
X113788110Y-36226000D01*
X113186890Y-36226000D01*
X113145409Y-36221915D01*
X113111431Y-36211607D01*
X113080110Y-36194866D01*
X113052661Y-36172339D01*
X113030134Y-36144890D01*
X113013393Y-36113569D01*
X113003085Y-36079591D01*
X112999000Y-36038110D01*
X112999000Y-35361890D01*
X113003085Y-35320409D01*
X113013393Y-35286431D01*
X113030134Y-35255110D01*
X113052661Y-35227661D01*
X113080110Y-35205134D01*
X113111431Y-35188393D01*
X113145409Y-35178085D01*
X113186890Y-35174000D01*
X113788110Y-35174000D01*
X113829591Y-35178085D01*
G37*
G36*
X112254591Y-35178085D02*
G01*
X112288569Y-35188393D01*
X112319890Y-35205134D01*
X112347339Y-35227661D01*
X112369866Y-35255110D01*
X112386607Y-35286431D01*
X112396915Y-35320409D01*
X112401000Y-35361890D01*
X112401000Y-36038110D01*
X112396915Y-36079591D01*
X112386607Y-36113569D01*
X112369866Y-36144890D01*
X112347339Y-36172339D01*
X112319890Y-36194866D01*
X112288569Y-36211607D01*
X112254591Y-36221915D01*
X112213110Y-36226000D01*
X111611890Y-36226000D01*
X111570409Y-36221915D01*
X111536431Y-36211607D01*
X111505110Y-36194866D01*
X111477661Y-36172339D01*
X111455134Y-36144890D01*
X111438393Y-36113569D01*
X111428085Y-36079591D01*
X111424000Y-36038110D01*
X111424000Y-35361890D01*
X111428085Y-35320409D01*
X111438393Y-35286431D01*
X111455134Y-35255110D01*
X111477661Y-35227661D01*
X111505110Y-35205134D01*
X111536431Y-35188393D01*
X111570409Y-35178085D01*
X111611890Y-35174000D01*
X112213110Y-35174000D01*
X112254591Y-35178085D01*
G37*
G36*
X100217091Y-34828085D02*
G01*
X100251069Y-34838393D01*
X100282390Y-34855134D01*
X100309839Y-34877661D01*
X100332366Y-34905110D01*
X100349107Y-34936431D01*
X100359415Y-34970409D01*
X100363500Y-35011890D01*
X100363500Y-35688110D01*
X100359415Y-35729591D01*
X100349107Y-35763569D01*
X100332366Y-35794890D01*
X100309839Y-35822339D01*
X100282390Y-35844866D01*
X100251069Y-35861607D01*
X100217091Y-35871915D01*
X100175610Y-35876000D01*
X99574390Y-35876000D01*
X99532909Y-35871915D01*
X99498931Y-35861607D01*
X99467610Y-35844866D01*
X99440161Y-35822339D01*
X99417634Y-35794890D01*
X99400893Y-35763569D01*
X99390585Y-35729591D01*
X99386500Y-35688110D01*
X99386500Y-35011890D01*
X99390585Y-34970409D01*
X99400893Y-34936431D01*
X99417634Y-34905110D01*
X99440161Y-34877661D01*
X99467610Y-34855134D01*
X99498931Y-34838393D01*
X99532909Y-34828085D01*
X99574390Y-34824000D01*
X100175610Y-34824000D01*
X100217091Y-34828085D01*
G37*
G36*
X98642091Y-34828085D02*
G01*
X98676069Y-34838393D01*
X98707390Y-34855134D01*
X98734839Y-34877661D01*
X98757366Y-34905110D01*
X98774107Y-34936431D01*
X98784415Y-34970409D01*
X98788500Y-35011890D01*
X98788500Y-35688110D01*
X98784415Y-35729591D01*
X98774107Y-35763569D01*
X98757366Y-35794890D01*
X98734839Y-35822339D01*
X98707390Y-35844866D01*
X98676069Y-35861607D01*
X98642091Y-35871915D01*
X98600610Y-35876000D01*
X97999390Y-35876000D01*
X97957909Y-35871915D01*
X97923931Y-35861607D01*
X97892610Y-35844866D01*
X97865161Y-35822339D01*
X97842634Y-35794890D01*
X97825893Y-35763569D01*
X97815585Y-35729591D01*
X97811500Y-35688110D01*
X97811500Y-35011890D01*
X97815585Y-34970409D01*
X97825893Y-34936431D01*
X97842634Y-34905110D01*
X97865161Y-34877661D01*
X97892610Y-34855134D01*
X97923931Y-34838393D01*
X97957909Y-34828085D01*
X97999390Y-34824000D01*
X98600610Y-34824000D01*
X98642091Y-34828085D01*
G37*
G36*
X123367091Y-30678085D02*
G01*
X123401069Y-30688393D01*
X123432390Y-30705134D01*
X123459839Y-30727661D01*
X123482366Y-30755110D01*
X123499107Y-30786431D01*
X123509415Y-30820409D01*
X123513500Y-30861890D01*
X123513500Y-31538110D01*
X123509415Y-31579591D01*
X123499107Y-31613569D01*
X123482366Y-31644890D01*
X123459839Y-31672339D01*
X123432390Y-31694866D01*
X123401069Y-31711607D01*
X123367091Y-31721915D01*
X123325610Y-31726000D01*
X122724390Y-31726000D01*
X122682909Y-31721915D01*
X122648931Y-31711607D01*
X122617610Y-31694866D01*
X122590161Y-31672339D01*
X122567634Y-31644890D01*
X122550893Y-31613569D01*
X122540585Y-31579591D01*
X122536500Y-31538110D01*
X122536500Y-30861890D01*
X122540585Y-30820409D01*
X122550893Y-30786431D01*
X122567634Y-30755110D01*
X122590161Y-30727661D01*
X122617610Y-30705134D01*
X122648931Y-30688393D01*
X122682909Y-30678085D01*
X122724390Y-30674000D01*
X123325610Y-30674000D01*
X123367091Y-30678085D01*
G37*
G36*
X121792091Y-30678085D02*
G01*
X121826069Y-30688393D01*
X121857390Y-30705134D01*
X121884839Y-30727661D01*
X121907366Y-30755110D01*
X121924107Y-30786431D01*
X121934415Y-30820409D01*
X121938500Y-30861890D01*
X121938500Y-31538110D01*
X121934415Y-31579591D01*
X121924107Y-31613569D01*
X121907366Y-31644890D01*
X121884839Y-31672339D01*
X121857390Y-31694866D01*
X121826069Y-31711607D01*
X121792091Y-31721915D01*
X121750610Y-31726000D01*
X121149390Y-31726000D01*
X121107909Y-31721915D01*
X121073931Y-31711607D01*
X121042610Y-31694866D01*
X121015161Y-31672339D01*
X120992634Y-31644890D01*
X120975893Y-31613569D01*
X120965585Y-31579591D01*
X120961500Y-31538110D01*
X120961500Y-30861890D01*
X120965585Y-30820409D01*
X120975893Y-30786431D01*
X120992634Y-30755110D01*
X121015161Y-30727661D01*
X121042610Y-30705134D01*
X121073931Y-30688393D01*
X121107909Y-30678085D01*
X121149390Y-30674000D01*
X121750610Y-30674000D01*
X121792091Y-30678085D01*
G37*
G36*
X87679591Y-30503085D02*
G01*
X87713569Y-30513393D01*
X87744890Y-30530134D01*
X87772339Y-30552661D01*
X87794866Y-30580110D01*
X87811607Y-30611431D01*
X87821915Y-30645409D01*
X87826000Y-30686890D01*
X87826000Y-31363110D01*
X87821915Y-31404591D01*
X87811607Y-31438569D01*
X87794866Y-31469890D01*
X87772339Y-31497339D01*
X87744890Y-31519866D01*
X87713569Y-31536607D01*
X87679591Y-31546915D01*
X87638110Y-31551000D01*
X87036890Y-31551000D01*
X86995409Y-31546915D01*
X86961431Y-31536607D01*
X86930110Y-31519866D01*
X86902661Y-31497339D01*
X86880134Y-31469890D01*
X86863393Y-31438569D01*
X86853085Y-31404591D01*
X86849000Y-31363110D01*
X86849000Y-30686890D01*
X86853085Y-30645409D01*
X86863393Y-30611431D01*
X86880134Y-30580110D01*
X86902661Y-30552661D01*
X86930110Y-30530134D01*
X86961431Y-30513393D01*
X86995409Y-30503085D01*
X87036890Y-30499000D01*
X87638110Y-30499000D01*
X87679591Y-30503085D01*
G37*
G36*
X89254591Y-30503085D02*
G01*
X89288569Y-30513393D01*
X89319890Y-30530134D01*
X89347339Y-30552661D01*
X89369866Y-30580110D01*
X89386607Y-30611431D01*
X89396915Y-30645409D01*
X89401000Y-30686890D01*
X89401000Y-31363110D01*
X89396915Y-31404591D01*
X89386607Y-31438569D01*
X89369866Y-31469890D01*
X89347339Y-31497339D01*
X89319890Y-31519866D01*
X89288569Y-31536607D01*
X89254591Y-31546915D01*
X89213110Y-31551000D01*
X88611890Y-31551000D01*
X88570409Y-31546915D01*
X88536431Y-31536607D01*
X88505110Y-31519866D01*
X88477661Y-31497339D01*
X88455134Y-31469890D01*
X88438393Y-31438569D01*
X88428085Y-31404591D01*
X88424000Y-31363110D01*
X88424000Y-30686890D01*
X88428085Y-30645409D01*
X88438393Y-30611431D01*
X88455134Y-30580110D01*
X88477661Y-30552661D01*
X88505110Y-30530134D01*
X88536431Y-30513393D01*
X88570409Y-30503085D01*
X88611890Y-30499000D01*
X89213110Y-30499000D01*
X89254591Y-30503085D01*
G37*
G36*
X105427585Y-26628802D02*
G01*
X105577410Y-26658604D01*
X105859674Y-26775521D01*
X106113705Y-26945259D01*
X106329741Y-27161295D01*
X106499479Y-27415326D01*
X106616396Y-27697590D01*
X106676000Y-27997240D01*
X106676000Y-28302760D01*
X106616396Y-28602410D01*
X106499479Y-28884674D01*
X106329741Y-29138705D01*
X106113705Y-29354741D01*
X105859674Y-29524479D01*
X105577410Y-29641396D01*
X105427585Y-29671198D01*
X105277761Y-29701000D01*
X104972239Y-29701000D01*
X104822415Y-29671198D01*
X104672590Y-29641396D01*
X104390326Y-29524479D01*
X104136295Y-29354741D01*
X103920259Y-29138705D01*
X103750521Y-28884674D01*
X103633604Y-28602410D01*
X103574000Y-28302760D01*
X103574000Y-27997240D01*
X103633604Y-27697590D01*
X103750521Y-27415326D01*
X103920259Y-27161295D01*
X104136295Y-26945259D01*
X104390326Y-26775521D01*
X104672590Y-26658604D01*
X104822415Y-26628802D01*
X104972239Y-26599000D01*
X105277761Y-26599000D01*
X105427585Y-26628802D01*
G37*
G36*
X91642091Y-24453085D02*
G01*
X91676069Y-24463393D01*
X91707390Y-24480134D01*
X91734839Y-24502661D01*
X91757366Y-24530110D01*
X91774107Y-24561431D01*
X91784415Y-24595409D01*
X91788500Y-24636890D01*
X91788500Y-25313110D01*
X91784415Y-25354591D01*
X91774107Y-25388569D01*
X91757366Y-25419890D01*
X91734839Y-25447339D01*
X91707390Y-25469866D01*
X91676069Y-25486607D01*
X91642091Y-25496915D01*
X91600610Y-25501000D01*
X90999390Y-25501000D01*
X90957909Y-25496915D01*
X90923931Y-25486607D01*
X90892610Y-25469866D01*
X90865161Y-25447339D01*
X90842634Y-25419890D01*
X90825893Y-25388569D01*
X90815585Y-25354591D01*
X90811500Y-25313110D01*
X90811500Y-24636890D01*
X90815585Y-24595409D01*
X90825893Y-24561431D01*
X90842634Y-24530110D01*
X90865161Y-24502661D01*
X90892610Y-24480134D01*
X90923931Y-24463393D01*
X90957909Y-24453085D01*
X90999390Y-24449000D01*
X91600610Y-24449000D01*
X91642091Y-24453085D01*
G37*
G36*
X90067091Y-24453085D02*
G01*
X90101069Y-24463393D01*
X90132390Y-24480134D01*
X90159839Y-24502661D01*
X90182366Y-24530110D01*
X90199107Y-24561431D01*
X90209415Y-24595409D01*
X90213500Y-24636890D01*
X90213500Y-25313110D01*
X90209415Y-25354591D01*
X90199107Y-25388569D01*
X90182366Y-25419890D01*
X90159839Y-25447339D01*
X90132390Y-25469866D01*
X90101069Y-25486607D01*
X90067091Y-25496915D01*
X90025610Y-25501000D01*
X89424390Y-25501000D01*
X89382909Y-25496915D01*
X89348931Y-25486607D01*
X89317610Y-25469866D01*
X89290161Y-25447339D01*
X89267634Y-25419890D01*
X89250893Y-25388569D01*
X89240585Y-25354591D01*
X89236500Y-25313110D01*
X89236500Y-24636890D01*
X89240585Y-24595409D01*
X89250893Y-24561431D01*
X89267634Y-24530110D01*
X89290161Y-24502661D01*
X89317610Y-24480134D01*
X89348931Y-24463393D01*
X89382909Y-24453085D01*
X89424390Y-24449000D01*
X90025610Y-24449000D01*
X90067091Y-24453085D01*
G37*
G36*
X117667091Y-22278085D02*
G01*
X117701069Y-22288393D01*
X117732390Y-22305134D01*
X117759839Y-22327661D01*
X117782366Y-22355110D01*
X117799107Y-22386431D01*
X117809415Y-22420409D01*
X117813500Y-22461890D01*
X117813500Y-23138110D01*
X117809415Y-23179591D01*
X117799107Y-23213569D01*
X117782366Y-23244890D01*
X117759839Y-23272339D01*
X117732390Y-23294866D01*
X117701069Y-23311607D01*
X117667091Y-23321915D01*
X117625610Y-23326000D01*
X117024390Y-23326000D01*
X116982909Y-23321915D01*
X116948931Y-23311607D01*
X116917610Y-23294866D01*
X116890161Y-23272339D01*
X116867634Y-23244890D01*
X116850893Y-23213569D01*
X116840585Y-23179591D01*
X116836500Y-23138110D01*
X116836500Y-22461890D01*
X116840585Y-22420409D01*
X116850893Y-22386431D01*
X116867634Y-22355110D01*
X116890161Y-22327661D01*
X116917610Y-22305134D01*
X116948931Y-22288393D01*
X116982909Y-22278085D01*
X117024390Y-22274000D01*
X117625610Y-22274000D01*
X117667091Y-22278085D01*
G37*
G36*
X116092091Y-22278085D02*
G01*
X116126069Y-22288393D01*
X116157390Y-22305134D01*
X116184839Y-22327661D01*
X116207366Y-22355110D01*
X116224107Y-22386431D01*
X116234415Y-22420409D01*
X116238500Y-22461890D01*
X116238500Y-23138110D01*
X116234415Y-23179591D01*
X116224107Y-23213569D01*
X116207366Y-23244890D01*
X116184839Y-23272339D01*
X116157390Y-23294866D01*
X116126069Y-23311607D01*
X116092091Y-23321915D01*
X116050610Y-23326000D01*
X115449390Y-23326000D01*
X115407909Y-23321915D01*
X115373931Y-23311607D01*
X115342610Y-23294866D01*
X115315161Y-23272339D01*
X115292634Y-23244890D01*
X115275893Y-23213569D01*
X115265585Y-23179591D01*
X115261500Y-23138110D01*
X115261500Y-22461890D01*
X115265585Y-22420409D01*
X115275893Y-22386431D01*
X115292634Y-22355110D01*
X115315161Y-22327661D01*
X115342610Y-22305134D01*
X115373931Y-22288393D01*
X115407909Y-22278085D01*
X115449390Y-22274000D01*
X116050610Y-22274000D01*
X116092091Y-22278085D01*
G37*
M02*
