G04 #@! TF.GenerationSoftware,KiCad,Pcbnew,(5.1.5)-3*
G04 #@! TF.CreationDate,2020-10-24T11:26:36-07:00*
G04 #@! TF.ProjectId,xmas_heart_2020,786d6173-5f68-4656-9172-745f32303230,rev?*
G04 #@! TF.SameCoordinates,Original*
G04 #@! TF.FileFunction,Soldermask,Bot*
G04 #@! TF.FilePolarity,Negative*
%FSLAX46Y46*%
G04 Gerber Fmt 4.6, Leading zero omitted, Abs format (unit mm)*
G04 Created by KiCad (PCBNEW (5.1.5)-3) date 2020-10-24 11:26:36*
%MOMM*%
%LPD*%
G04 APERTURE LIST*
%ADD10C,0.100000*%
G04 APERTURE END LIST*
D10*
G36*
X103262701Y-52401000D02*
G01*
X101960701Y-52401000D01*
X101960701Y-49799000D01*
X103262701Y-49799000D01*
X103262701Y-52401000D01*
G37*
G36*
X108262701Y-52401000D02*
G01*
X106960701Y-52401000D01*
X106960701Y-49799000D01*
X108262701Y-49799000D01*
X108262701Y-52401000D01*
G37*
G36*
X105762701Y-52401000D02*
G01*
X104460701Y-52401000D01*
X104460701Y-49799000D01*
X105762701Y-49799000D01*
X105762701Y-52401000D01*
G37*
G36*
X105762701Y-46901000D02*
G01*
X104460701Y-46901000D01*
X104460701Y-44299000D01*
X105762701Y-44299000D01*
X105762701Y-46901000D01*
G37*
G36*
X103262701Y-46901000D02*
G01*
X101960701Y-46901000D01*
X101960701Y-44299000D01*
X103262701Y-44299000D01*
X103262701Y-46901000D01*
G37*
G36*
X108262701Y-46901000D02*
G01*
X106960701Y-46901000D01*
X106960701Y-44299000D01*
X108262701Y-44299000D01*
X108262701Y-46901000D01*
G37*
G36*
X124045059Y-36091689D02*
G01*
X120366689Y-39770059D01*
X118526797Y-37930167D01*
X122205167Y-34251797D01*
X124045059Y-36091689D01*
G37*
G36*
X91696605Y-37930167D02*
G01*
X89856713Y-39770059D01*
X86178343Y-36091689D01*
X88018235Y-34251797D01*
X91696605Y-37930167D01*
G37*
G36*
X101151000Y-39201000D02*
G01*
X100149000Y-39201000D01*
X100149000Y-38699000D01*
X101151000Y-38699000D01*
X101151000Y-39201000D01*
G37*
G36*
X102851000Y-39201000D02*
G01*
X101849000Y-39201000D01*
X101849000Y-38699000D01*
X102851000Y-38699000D01*
X102851000Y-39201000D01*
G37*
G36*
X107976000Y-39201000D02*
G01*
X106974000Y-39201000D01*
X106974000Y-38699000D01*
X107976000Y-38699000D01*
X107976000Y-39201000D01*
G37*
G36*
X109676000Y-39201000D02*
G01*
X108674000Y-39201000D01*
X108674000Y-38699000D01*
X109676000Y-38699000D01*
X109676000Y-39201000D01*
G37*
G36*
X102851000Y-38401000D02*
G01*
X101849000Y-38401000D01*
X101849000Y-37899000D01*
X102851000Y-37899000D01*
X102851000Y-38401000D01*
G37*
G36*
X109676000Y-38401000D02*
G01*
X108674000Y-38401000D01*
X108674000Y-37899000D01*
X109676000Y-37899000D01*
X109676000Y-38401000D01*
G37*
G36*
X101151000Y-38401000D02*
G01*
X100149000Y-38401000D01*
X100149000Y-37899000D01*
X101151000Y-37899000D01*
X101151000Y-38401000D01*
G37*
G36*
X107976000Y-38401000D02*
G01*
X106974000Y-38401000D01*
X106974000Y-37899000D01*
X107976000Y-37899000D01*
X107976000Y-38401000D01*
G37*
G36*
X101151000Y-37601000D02*
G01*
X100149000Y-37601000D01*
X100149000Y-37099000D01*
X101151000Y-37099000D01*
X101151000Y-37601000D01*
G37*
G36*
X102851000Y-37601000D02*
G01*
X101849000Y-37601000D01*
X101849000Y-37099000D01*
X102851000Y-37099000D01*
X102851000Y-37601000D01*
G37*
G36*
X107976000Y-37601000D02*
G01*
X106974000Y-37601000D01*
X106974000Y-37099000D01*
X107976000Y-37099000D01*
X107976000Y-37601000D01*
G37*
G36*
X109676000Y-37601000D02*
G01*
X108674000Y-37601000D01*
X108674000Y-37099000D01*
X109676000Y-37099000D01*
X109676000Y-37601000D01*
G37*
G36*
X101151000Y-36801000D02*
G01*
X100149000Y-36801000D01*
X100149000Y-36299000D01*
X101151000Y-36299000D01*
X101151000Y-36801000D01*
G37*
G36*
X109676000Y-36801000D02*
G01*
X108674000Y-36801000D01*
X108674000Y-36299000D01*
X109676000Y-36299000D01*
X109676000Y-36801000D01*
G37*
G36*
X107976000Y-36801000D02*
G01*
X106974000Y-36801000D01*
X106974000Y-36299000D01*
X107976000Y-36299000D01*
X107976000Y-36801000D01*
G37*
G36*
X102851000Y-36801000D02*
G01*
X101849000Y-36801000D01*
X101849000Y-36299000D01*
X102851000Y-36299000D01*
X102851000Y-36801000D01*
G37*
G36*
X95992500Y-28247033D02*
G01*
X96456752Y-28439332D01*
X96456754Y-28439333D01*
X96874570Y-28718509D01*
X97229893Y-29073832D01*
X97509069Y-29491648D01*
X97509070Y-29491650D01*
X97701369Y-29955902D01*
X97799402Y-30448747D01*
X97799402Y-30951253D01*
X97701369Y-31444098D01*
X97509070Y-31908350D01*
X97509069Y-31908352D01*
X97229893Y-32326168D01*
X96874570Y-32681491D01*
X96456754Y-32960667D01*
X96456753Y-32960668D01*
X96456752Y-32960668D01*
X95992500Y-33152967D01*
X95499655Y-33251000D01*
X94997149Y-33251000D01*
X94504304Y-33152967D01*
X94040052Y-32960668D01*
X94040051Y-32960668D01*
X94040050Y-32960667D01*
X93622234Y-32681491D01*
X93266911Y-32326168D01*
X92987735Y-31908352D01*
X92987734Y-31908350D01*
X92795435Y-31444098D01*
X92697402Y-30951253D01*
X92697402Y-30448747D01*
X92795435Y-29955902D01*
X92987734Y-29491650D01*
X92987735Y-29491648D01*
X93266911Y-29073832D01*
X93622234Y-28718509D01*
X94040050Y-28439333D01*
X94040052Y-28439332D01*
X94504304Y-28247033D01*
X94997149Y-28149000D01*
X95499655Y-28149000D01*
X95992500Y-28247033D01*
G37*
G36*
X115719098Y-28247033D02*
G01*
X116183350Y-28439332D01*
X116183352Y-28439333D01*
X116601168Y-28718509D01*
X116956491Y-29073832D01*
X117235667Y-29491648D01*
X117235668Y-29491650D01*
X117427967Y-29955902D01*
X117526000Y-30448747D01*
X117526000Y-30951253D01*
X117427967Y-31444098D01*
X117235668Y-31908350D01*
X117235667Y-31908352D01*
X116956491Y-32326168D01*
X116601168Y-32681491D01*
X116183352Y-32960667D01*
X116183351Y-32960668D01*
X116183350Y-32960668D01*
X115719098Y-33152967D01*
X115226253Y-33251000D01*
X114723747Y-33251000D01*
X114230902Y-33152967D01*
X113766650Y-32960668D01*
X113766649Y-32960668D01*
X113766648Y-32960667D01*
X113348832Y-32681491D01*
X112993509Y-32326168D01*
X112714333Y-31908352D01*
X112714332Y-31908350D01*
X112522033Y-31444098D01*
X112424000Y-30951253D01*
X112424000Y-30448747D01*
X112522033Y-29955902D01*
X112714332Y-29491650D01*
X112714333Y-29491648D01*
X112993509Y-29073832D01*
X113348832Y-28718509D01*
X113766648Y-28439333D01*
X113766650Y-28439332D01*
X114230902Y-28247033D01*
X114723747Y-28149000D01*
X115226253Y-28149000D01*
X115719098Y-28247033D01*
G37*
G36*
X105427585Y-26628802D02*
G01*
X105577410Y-26658604D01*
X105859674Y-26775521D01*
X106113705Y-26945259D01*
X106329741Y-27161295D01*
X106499479Y-27415326D01*
X106616396Y-27697590D01*
X106676000Y-27997240D01*
X106676000Y-28302760D01*
X106616396Y-28602410D01*
X106499479Y-28884674D01*
X106329741Y-29138705D01*
X106113705Y-29354741D01*
X105859674Y-29524479D01*
X105577410Y-29641396D01*
X105427585Y-29671198D01*
X105277761Y-29701000D01*
X104972239Y-29701000D01*
X104822415Y-29671198D01*
X104672590Y-29641396D01*
X104390326Y-29524479D01*
X104136295Y-29354741D01*
X103920259Y-29138705D01*
X103750521Y-28884674D01*
X103633604Y-28602410D01*
X103574000Y-28302760D01*
X103574000Y-27997240D01*
X103633604Y-27697590D01*
X103750521Y-27415326D01*
X103920259Y-27161295D01*
X104136295Y-26945259D01*
X104390326Y-26775521D01*
X104672590Y-26658604D01*
X104822415Y-26628802D01*
X104972239Y-26599000D01*
X105277761Y-26599000D01*
X105427585Y-26628802D01*
G37*
G36*
X111423203Y-23469833D02*
G01*
X107744833Y-27148203D01*
X105904941Y-25308311D01*
X109583311Y-21629941D01*
X111423203Y-23469833D01*
G37*
G36*
X104318461Y-25308311D02*
G01*
X102478569Y-27148203D01*
X98800199Y-23469833D01*
X100640091Y-21629941D01*
X104318461Y-25308311D01*
G37*
M02*
