G04 #@! TF.GenerationSoftware,KiCad,Pcbnew,(5.1.5)-3*
G04 #@! TF.CreationDate,2020-10-24T11:26:36-07:00*
G04 #@! TF.ProjectId,xmas_heart_2020,786d6173-5f68-4656-9172-745f32303230,rev?*
G04 #@! TF.SameCoordinates,Original*
G04 #@! TF.FileFunction,Legend,Top*
G04 #@! TF.FilePolarity,Positive*
%FSLAX46Y46*%
G04 Gerber Fmt 4.6, Leading zero omitted, Abs format (unit mm)*
G04 Created by KiCad (PCBNEW (5.1.5)-3) date 2020-10-24 11:26:36*
%MOMM*%
%LPD*%
G04 APERTURE LIST*
%ADD10C,0.150000*%
%ADD11C,0.120000*%
G04 APERTURE END LIST*
D10*
X99603571Y-41379761D02*
X99603571Y-39379761D01*
X99603571Y-40332142D02*
X100746428Y-40332142D01*
X100746428Y-41379761D02*
X100746428Y-39379761D01*
X102079761Y-39379761D02*
X102460714Y-39379761D01*
X102651190Y-39475000D01*
X102841666Y-39665476D01*
X102936904Y-40046428D01*
X102936904Y-40713095D01*
X102841666Y-41094047D01*
X102651190Y-41284523D01*
X102460714Y-41379761D01*
X102079761Y-41379761D01*
X101889285Y-41284523D01*
X101698809Y-41094047D01*
X101603571Y-40713095D01*
X101603571Y-40046428D01*
X101698809Y-39665476D01*
X101889285Y-39475000D01*
X102079761Y-39379761D01*
X104746428Y-41379761D02*
X103794047Y-41379761D01*
X103794047Y-39379761D01*
X105413095Y-41379761D02*
X105413095Y-39379761D01*
X106365476Y-41379761D02*
X106365476Y-39379761D01*
X106841666Y-39379761D01*
X107127380Y-39475000D01*
X107317857Y-39665476D01*
X107413095Y-39855952D01*
X107508333Y-40236904D01*
X107508333Y-40522619D01*
X107413095Y-40903571D01*
X107317857Y-41094047D01*
X107127380Y-41284523D01*
X106841666Y-41379761D01*
X106365476Y-41379761D01*
X108270238Y-40808333D02*
X109222619Y-40808333D01*
X108079761Y-41379761D02*
X108746428Y-39379761D01*
X109413095Y-41379761D01*
X110460714Y-40427380D02*
X110460714Y-41379761D01*
X109794047Y-39379761D02*
X110460714Y-40427380D01*
X111127380Y-39379761D01*
X111698809Y-41284523D02*
X111984523Y-41379761D01*
X112460714Y-41379761D01*
X112651190Y-41284523D01*
X112746428Y-41189285D01*
X112841666Y-40998809D01*
X112841666Y-40808333D01*
X112746428Y-40617857D01*
X112651190Y-40522619D01*
X112460714Y-40427380D01*
X112079761Y-40332142D01*
X111889285Y-40236904D01*
X111794047Y-40141666D01*
X111698809Y-39951190D01*
X111698809Y-39760714D01*
X111794047Y-39570238D01*
X111889285Y-39475000D01*
X112079761Y-39379761D01*
X112555952Y-39379761D01*
X112841666Y-39475000D01*
X93189285Y-30304761D02*
X93189285Y-28304761D01*
X93189285Y-29257142D02*
X94332142Y-29257142D01*
X94332142Y-30304761D02*
X94332142Y-28304761D01*
X95189285Y-29733333D02*
X96141666Y-29733333D01*
X94998809Y-30304761D02*
X95665476Y-28304761D01*
X96332142Y-30304761D01*
X96998809Y-30304761D02*
X96998809Y-28304761D01*
X97760714Y-28304761D01*
X97951190Y-28400000D01*
X98046428Y-28495238D01*
X98141666Y-28685714D01*
X98141666Y-28971428D01*
X98046428Y-29161904D01*
X97951190Y-29257142D01*
X97760714Y-29352380D01*
X96998809Y-29352380D01*
X98998809Y-30304761D02*
X98998809Y-28304761D01*
X99760714Y-28304761D01*
X99951190Y-28400000D01*
X100046428Y-28495238D01*
X100141666Y-28685714D01*
X100141666Y-28971428D01*
X100046428Y-29161904D01*
X99951190Y-29257142D01*
X99760714Y-29352380D01*
X98998809Y-29352380D01*
X101379761Y-29352380D02*
X101379761Y-30304761D01*
X100713095Y-28304761D02*
X101379761Y-29352380D01*
X102046428Y-28304761D01*
D11*
X91312500Y-24240000D02*
X89027500Y-24240000D01*
X89027500Y-24240000D02*
X89027500Y-25710000D01*
X89027500Y-25710000D02*
X91312500Y-25710000D01*
X118022500Y-22065000D02*
X115737500Y-22065000D01*
X118022500Y-23535000D02*
X118022500Y-22065000D01*
X115737500Y-23535000D02*
X118022500Y-23535000D01*
X88925000Y-30290000D02*
X86640000Y-30290000D01*
X86640000Y-30290000D02*
X86640000Y-31760000D01*
X86640000Y-31760000D02*
X88925000Y-31760000D01*
X123722500Y-30465000D02*
X121437500Y-30465000D01*
X123722500Y-31935000D02*
X123722500Y-30465000D01*
X121437500Y-31935000D02*
X123722500Y-31935000D01*
X99887500Y-34615000D02*
X97602500Y-34615000D01*
X97602500Y-34615000D02*
X97602500Y-36085000D01*
X97602500Y-36085000D02*
X99887500Y-36085000D01*
X114185000Y-34965000D02*
X111900000Y-34965000D01*
X114185000Y-36435000D02*
X114185000Y-34965000D01*
X111900000Y-36435000D02*
X114185000Y-36435000D01*
X97850000Y-44115000D02*
X95565000Y-44115000D01*
X95565000Y-44115000D02*
X95565000Y-45585000D01*
X95565000Y-45585000D02*
X97850000Y-45585000D01*
X114522500Y-44465000D02*
X112237500Y-44465000D01*
X114522500Y-45935000D02*
X114522500Y-44465000D01*
X112237500Y-45935000D02*
X114522500Y-45935000D01*
D10*
X89774404Y-23997380D02*
X89774404Y-22997380D01*
X90012500Y-22997380D01*
X90155357Y-23045000D01*
X90250595Y-23140238D01*
X90298214Y-23235476D01*
X90345833Y-23425952D01*
X90345833Y-23568809D01*
X90298214Y-23759285D01*
X90250595Y-23854523D01*
X90155357Y-23949761D01*
X90012500Y-23997380D01*
X89774404Y-23997380D01*
X91298214Y-23997380D02*
X90726785Y-23997380D01*
X91012500Y-23997380D02*
X91012500Y-22997380D01*
X90917261Y-23140238D01*
X90822023Y-23235476D01*
X90726785Y-23283095D01*
X115799404Y-24682380D02*
X115799404Y-23682380D01*
X116037500Y-23682380D01*
X116180357Y-23730000D01*
X116275595Y-23825238D01*
X116323214Y-23920476D01*
X116370833Y-24110952D01*
X116370833Y-24253809D01*
X116323214Y-24444285D01*
X116275595Y-24539523D01*
X116180357Y-24634761D01*
X116037500Y-24682380D01*
X115799404Y-24682380D01*
X116751785Y-23777619D02*
X116799404Y-23730000D01*
X116894642Y-23682380D01*
X117132738Y-23682380D01*
X117227976Y-23730000D01*
X117275595Y-23777619D01*
X117323214Y-23872857D01*
X117323214Y-23968095D01*
X117275595Y-24110952D01*
X116704166Y-24682380D01*
X117323214Y-24682380D01*
X87386904Y-30047380D02*
X87386904Y-29047380D01*
X87625000Y-29047380D01*
X87767857Y-29095000D01*
X87863095Y-29190238D01*
X87910714Y-29285476D01*
X87958333Y-29475952D01*
X87958333Y-29618809D01*
X87910714Y-29809285D01*
X87863095Y-29904523D01*
X87767857Y-29999761D01*
X87625000Y-30047380D01*
X87386904Y-30047380D01*
X88291666Y-29047380D02*
X88910714Y-29047380D01*
X88577380Y-29428333D01*
X88720238Y-29428333D01*
X88815476Y-29475952D01*
X88863095Y-29523571D01*
X88910714Y-29618809D01*
X88910714Y-29856904D01*
X88863095Y-29952142D01*
X88815476Y-29999761D01*
X88720238Y-30047380D01*
X88434523Y-30047380D01*
X88339285Y-29999761D01*
X88291666Y-29952142D01*
X121499404Y-33082380D02*
X121499404Y-32082380D01*
X121737500Y-32082380D01*
X121880357Y-32130000D01*
X121975595Y-32225238D01*
X122023214Y-32320476D01*
X122070833Y-32510952D01*
X122070833Y-32653809D01*
X122023214Y-32844285D01*
X121975595Y-32939523D01*
X121880357Y-33034761D01*
X121737500Y-33082380D01*
X121499404Y-33082380D01*
X122927976Y-32415714D02*
X122927976Y-33082380D01*
X122689880Y-32034761D02*
X122451785Y-32749047D01*
X123070833Y-32749047D01*
X98349404Y-34372380D02*
X98349404Y-33372380D01*
X98587500Y-33372380D01*
X98730357Y-33420000D01*
X98825595Y-33515238D01*
X98873214Y-33610476D01*
X98920833Y-33800952D01*
X98920833Y-33943809D01*
X98873214Y-34134285D01*
X98825595Y-34229523D01*
X98730357Y-34324761D01*
X98587500Y-34372380D01*
X98349404Y-34372380D01*
X99825595Y-33372380D02*
X99349404Y-33372380D01*
X99301785Y-33848571D01*
X99349404Y-33800952D01*
X99444642Y-33753333D01*
X99682738Y-33753333D01*
X99777976Y-33800952D01*
X99825595Y-33848571D01*
X99873214Y-33943809D01*
X99873214Y-34181904D01*
X99825595Y-34277142D01*
X99777976Y-34324761D01*
X99682738Y-34372380D01*
X99444642Y-34372380D01*
X99349404Y-34324761D01*
X99301785Y-34277142D01*
X111961904Y-37582380D02*
X111961904Y-36582380D01*
X112200000Y-36582380D01*
X112342857Y-36630000D01*
X112438095Y-36725238D01*
X112485714Y-36820476D01*
X112533333Y-37010952D01*
X112533333Y-37153809D01*
X112485714Y-37344285D01*
X112438095Y-37439523D01*
X112342857Y-37534761D01*
X112200000Y-37582380D01*
X111961904Y-37582380D01*
X113390476Y-36582380D02*
X113200000Y-36582380D01*
X113104761Y-36630000D01*
X113057142Y-36677619D01*
X112961904Y-36820476D01*
X112914285Y-37010952D01*
X112914285Y-37391904D01*
X112961904Y-37487142D01*
X113009523Y-37534761D01*
X113104761Y-37582380D01*
X113295238Y-37582380D01*
X113390476Y-37534761D01*
X113438095Y-37487142D01*
X113485714Y-37391904D01*
X113485714Y-37153809D01*
X113438095Y-37058571D01*
X113390476Y-37010952D01*
X113295238Y-36963333D01*
X113104761Y-36963333D01*
X113009523Y-37010952D01*
X112961904Y-37058571D01*
X112914285Y-37153809D01*
X96311904Y-43872380D02*
X96311904Y-42872380D01*
X96550000Y-42872380D01*
X96692857Y-42920000D01*
X96788095Y-43015238D01*
X96835714Y-43110476D01*
X96883333Y-43300952D01*
X96883333Y-43443809D01*
X96835714Y-43634285D01*
X96788095Y-43729523D01*
X96692857Y-43824761D01*
X96550000Y-43872380D01*
X96311904Y-43872380D01*
X97216666Y-42872380D02*
X97883333Y-42872380D01*
X97454761Y-43872380D01*
X112299404Y-47082380D02*
X112299404Y-46082380D01*
X112537500Y-46082380D01*
X112680357Y-46130000D01*
X112775595Y-46225238D01*
X112823214Y-46320476D01*
X112870833Y-46510952D01*
X112870833Y-46653809D01*
X112823214Y-46844285D01*
X112775595Y-46939523D01*
X112680357Y-47034761D01*
X112537500Y-47082380D01*
X112299404Y-47082380D01*
X113442261Y-46510952D02*
X113347023Y-46463333D01*
X113299404Y-46415714D01*
X113251785Y-46320476D01*
X113251785Y-46272857D01*
X113299404Y-46177619D01*
X113347023Y-46130000D01*
X113442261Y-46082380D01*
X113632738Y-46082380D01*
X113727976Y-46130000D01*
X113775595Y-46177619D01*
X113823214Y-46272857D01*
X113823214Y-46320476D01*
X113775595Y-46415714D01*
X113727976Y-46463333D01*
X113632738Y-46510952D01*
X113442261Y-46510952D01*
X113347023Y-46558571D01*
X113299404Y-46606190D01*
X113251785Y-46701428D01*
X113251785Y-46891904D01*
X113299404Y-46987142D01*
X113347023Y-47034761D01*
X113442261Y-47082380D01*
X113632738Y-47082380D01*
X113727976Y-47034761D01*
X113775595Y-46987142D01*
X113823214Y-46891904D01*
X113823214Y-46701428D01*
X113775595Y-46606190D01*
X113727976Y-46558571D01*
X113632738Y-46510952D01*
M02*
