G04 #@! TF.GenerationSoftware,KiCad,Pcbnew,(5.1.5)-3*
G04 #@! TF.CreationDate,2020-10-24T11:26:36-07:00*
G04 #@! TF.ProjectId,xmas_heart_2020,786d6173-5f68-4656-9172-745f32303230,rev?*
G04 #@! TF.SameCoordinates,Original*
G04 #@! TF.FileFunction,Copper,L1,Top*
G04 #@! TF.FilePolarity,Positive*
%FSLAX46Y46*%
G04 Gerber Fmt 4.6, Leading zero omitted, Abs format (unit mm)*
G04 Created by KiCad (PCBNEW (5.1.5)-3) date 2020-10-24 11:26:36*
%MOMM*%
%LPD*%
G04 APERTURE LIST*
%ADD10C,0.100000*%
%ADD11C,0.800000*%
%ADD12C,0.250000*%
%ADD13C,0.254000*%
G04 APERTURE END LIST*
G04 #@! TA.AperFunction,SMDPad,CuDef*
D10*
G36*
X89965191Y-24501053D02*
G01*
X89986426Y-24504203D01*
X90007250Y-24509419D01*
X90027462Y-24516651D01*
X90046868Y-24525830D01*
X90065281Y-24536866D01*
X90082524Y-24549654D01*
X90098430Y-24564070D01*
X90112846Y-24579976D01*
X90125634Y-24597219D01*
X90136670Y-24615632D01*
X90145849Y-24635038D01*
X90153081Y-24655250D01*
X90158297Y-24676074D01*
X90161447Y-24697309D01*
X90162500Y-24718750D01*
X90162500Y-25231250D01*
X90161447Y-25252691D01*
X90158297Y-25273926D01*
X90153081Y-25294750D01*
X90145849Y-25314962D01*
X90136670Y-25334368D01*
X90125634Y-25352781D01*
X90112846Y-25370024D01*
X90098430Y-25385930D01*
X90082524Y-25400346D01*
X90065281Y-25413134D01*
X90046868Y-25424170D01*
X90027462Y-25433349D01*
X90007250Y-25440581D01*
X89986426Y-25445797D01*
X89965191Y-25448947D01*
X89943750Y-25450000D01*
X89506250Y-25450000D01*
X89484809Y-25448947D01*
X89463574Y-25445797D01*
X89442750Y-25440581D01*
X89422538Y-25433349D01*
X89403132Y-25424170D01*
X89384719Y-25413134D01*
X89367476Y-25400346D01*
X89351570Y-25385930D01*
X89337154Y-25370024D01*
X89324366Y-25352781D01*
X89313330Y-25334368D01*
X89304151Y-25314962D01*
X89296919Y-25294750D01*
X89291703Y-25273926D01*
X89288553Y-25252691D01*
X89287500Y-25231250D01*
X89287500Y-24718750D01*
X89288553Y-24697309D01*
X89291703Y-24676074D01*
X89296919Y-24655250D01*
X89304151Y-24635038D01*
X89313330Y-24615632D01*
X89324366Y-24597219D01*
X89337154Y-24579976D01*
X89351570Y-24564070D01*
X89367476Y-24549654D01*
X89384719Y-24536866D01*
X89403132Y-24525830D01*
X89422538Y-24516651D01*
X89442750Y-24509419D01*
X89463574Y-24504203D01*
X89484809Y-24501053D01*
X89506250Y-24500000D01*
X89943750Y-24500000D01*
X89965191Y-24501053D01*
G37*
G04 #@! TD.AperFunction*
G04 #@! TA.AperFunction,SMDPad,CuDef*
G36*
X91540191Y-24501053D02*
G01*
X91561426Y-24504203D01*
X91582250Y-24509419D01*
X91602462Y-24516651D01*
X91621868Y-24525830D01*
X91640281Y-24536866D01*
X91657524Y-24549654D01*
X91673430Y-24564070D01*
X91687846Y-24579976D01*
X91700634Y-24597219D01*
X91711670Y-24615632D01*
X91720849Y-24635038D01*
X91728081Y-24655250D01*
X91733297Y-24676074D01*
X91736447Y-24697309D01*
X91737500Y-24718750D01*
X91737500Y-25231250D01*
X91736447Y-25252691D01*
X91733297Y-25273926D01*
X91728081Y-25294750D01*
X91720849Y-25314962D01*
X91711670Y-25334368D01*
X91700634Y-25352781D01*
X91687846Y-25370024D01*
X91673430Y-25385930D01*
X91657524Y-25400346D01*
X91640281Y-25413134D01*
X91621868Y-25424170D01*
X91602462Y-25433349D01*
X91582250Y-25440581D01*
X91561426Y-25445797D01*
X91540191Y-25448947D01*
X91518750Y-25450000D01*
X91081250Y-25450000D01*
X91059809Y-25448947D01*
X91038574Y-25445797D01*
X91017750Y-25440581D01*
X90997538Y-25433349D01*
X90978132Y-25424170D01*
X90959719Y-25413134D01*
X90942476Y-25400346D01*
X90926570Y-25385930D01*
X90912154Y-25370024D01*
X90899366Y-25352781D01*
X90888330Y-25334368D01*
X90879151Y-25314962D01*
X90871919Y-25294750D01*
X90866703Y-25273926D01*
X90863553Y-25252691D01*
X90862500Y-25231250D01*
X90862500Y-24718750D01*
X90863553Y-24697309D01*
X90866703Y-24676074D01*
X90871919Y-24655250D01*
X90879151Y-24635038D01*
X90888330Y-24615632D01*
X90899366Y-24597219D01*
X90912154Y-24579976D01*
X90926570Y-24564070D01*
X90942476Y-24549654D01*
X90959719Y-24536866D01*
X90978132Y-24525830D01*
X90997538Y-24516651D01*
X91017750Y-24509419D01*
X91038574Y-24504203D01*
X91059809Y-24501053D01*
X91081250Y-24500000D01*
X91518750Y-24500000D01*
X91540191Y-24501053D01*
G37*
G04 #@! TD.AperFunction*
G04 #@! TA.AperFunction,SMDPad,CuDef*
G36*
X115990191Y-22326053D02*
G01*
X116011426Y-22329203D01*
X116032250Y-22334419D01*
X116052462Y-22341651D01*
X116071868Y-22350830D01*
X116090281Y-22361866D01*
X116107524Y-22374654D01*
X116123430Y-22389070D01*
X116137846Y-22404976D01*
X116150634Y-22422219D01*
X116161670Y-22440632D01*
X116170849Y-22460038D01*
X116178081Y-22480250D01*
X116183297Y-22501074D01*
X116186447Y-22522309D01*
X116187500Y-22543750D01*
X116187500Y-23056250D01*
X116186447Y-23077691D01*
X116183297Y-23098926D01*
X116178081Y-23119750D01*
X116170849Y-23139962D01*
X116161670Y-23159368D01*
X116150634Y-23177781D01*
X116137846Y-23195024D01*
X116123430Y-23210930D01*
X116107524Y-23225346D01*
X116090281Y-23238134D01*
X116071868Y-23249170D01*
X116052462Y-23258349D01*
X116032250Y-23265581D01*
X116011426Y-23270797D01*
X115990191Y-23273947D01*
X115968750Y-23275000D01*
X115531250Y-23275000D01*
X115509809Y-23273947D01*
X115488574Y-23270797D01*
X115467750Y-23265581D01*
X115447538Y-23258349D01*
X115428132Y-23249170D01*
X115409719Y-23238134D01*
X115392476Y-23225346D01*
X115376570Y-23210930D01*
X115362154Y-23195024D01*
X115349366Y-23177781D01*
X115338330Y-23159368D01*
X115329151Y-23139962D01*
X115321919Y-23119750D01*
X115316703Y-23098926D01*
X115313553Y-23077691D01*
X115312500Y-23056250D01*
X115312500Y-22543750D01*
X115313553Y-22522309D01*
X115316703Y-22501074D01*
X115321919Y-22480250D01*
X115329151Y-22460038D01*
X115338330Y-22440632D01*
X115349366Y-22422219D01*
X115362154Y-22404976D01*
X115376570Y-22389070D01*
X115392476Y-22374654D01*
X115409719Y-22361866D01*
X115428132Y-22350830D01*
X115447538Y-22341651D01*
X115467750Y-22334419D01*
X115488574Y-22329203D01*
X115509809Y-22326053D01*
X115531250Y-22325000D01*
X115968750Y-22325000D01*
X115990191Y-22326053D01*
G37*
G04 #@! TD.AperFunction*
G04 #@! TA.AperFunction,SMDPad,CuDef*
G36*
X117565191Y-22326053D02*
G01*
X117586426Y-22329203D01*
X117607250Y-22334419D01*
X117627462Y-22341651D01*
X117646868Y-22350830D01*
X117665281Y-22361866D01*
X117682524Y-22374654D01*
X117698430Y-22389070D01*
X117712846Y-22404976D01*
X117725634Y-22422219D01*
X117736670Y-22440632D01*
X117745849Y-22460038D01*
X117753081Y-22480250D01*
X117758297Y-22501074D01*
X117761447Y-22522309D01*
X117762500Y-22543750D01*
X117762500Y-23056250D01*
X117761447Y-23077691D01*
X117758297Y-23098926D01*
X117753081Y-23119750D01*
X117745849Y-23139962D01*
X117736670Y-23159368D01*
X117725634Y-23177781D01*
X117712846Y-23195024D01*
X117698430Y-23210930D01*
X117682524Y-23225346D01*
X117665281Y-23238134D01*
X117646868Y-23249170D01*
X117627462Y-23258349D01*
X117607250Y-23265581D01*
X117586426Y-23270797D01*
X117565191Y-23273947D01*
X117543750Y-23275000D01*
X117106250Y-23275000D01*
X117084809Y-23273947D01*
X117063574Y-23270797D01*
X117042750Y-23265581D01*
X117022538Y-23258349D01*
X117003132Y-23249170D01*
X116984719Y-23238134D01*
X116967476Y-23225346D01*
X116951570Y-23210930D01*
X116937154Y-23195024D01*
X116924366Y-23177781D01*
X116913330Y-23159368D01*
X116904151Y-23139962D01*
X116896919Y-23119750D01*
X116891703Y-23098926D01*
X116888553Y-23077691D01*
X116887500Y-23056250D01*
X116887500Y-22543750D01*
X116888553Y-22522309D01*
X116891703Y-22501074D01*
X116896919Y-22480250D01*
X116904151Y-22460038D01*
X116913330Y-22440632D01*
X116924366Y-22422219D01*
X116937154Y-22404976D01*
X116951570Y-22389070D01*
X116967476Y-22374654D01*
X116984719Y-22361866D01*
X117003132Y-22350830D01*
X117022538Y-22341651D01*
X117042750Y-22334419D01*
X117063574Y-22329203D01*
X117084809Y-22326053D01*
X117106250Y-22325000D01*
X117543750Y-22325000D01*
X117565191Y-22326053D01*
G37*
G04 #@! TD.AperFunction*
G04 #@! TA.AperFunction,SMDPad,CuDef*
G36*
X87577691Y-30551053D02*
G01*
X87598926Y-30554203D01*
X87619750Y-30559419D01*
X87639962Y-30566651D01*
X87659368Y-30575830D01*
X87677781Y-30586866D01*
X87695024Y-30599654D01*
X87710930Y-30614070D01*
X87725346Y-30629976D01*
X87738134Y-30647219D01*
X87749170Y-30665632D01*
X87758349Y-30685038D01*
X87765581Y-30705250D01*
X87770797Y-30726074D01*
X87773947Y-30747309D01*
X87775000Y-30768750D01*
X87775000Y-31281250D01*
X87773947Y-31302691D01*
X87770797Y-31323926D01*
X87765581Y-31344750D01*
X87758349Y-31364962D01*
X87749170Y-31384368D01*
X87738134Y-31402781D01*
X87725346Y-31420024D01*
X87710930Y-31435930D01*
X87695024Y-31450346D01*
X87677781Y-31463134D01*
X87659368Y-31474170D01*
X87639962Y-31483349D01*
X87619750Y-31490581D01*
X87598926Y-31495797D01*
X87577691Y-31498947D01*
X87556250Y-31500000D01*
X87118750Y-31500000D01*
X87097309Y-31498947D01*
X87076074Y-31495797D01*
X87055250Y-31490581D01*
X87035038Y-31483349D01*
X87015632Y-31474170D01*
X86997219Y-31463134D01*
X86979976Y-31450346D01*
X86964070Y-31435930D01*
X86949654Y-31420024D01*
X86936866Y-31402781D01*
X86925830Y-31384368D01*
X86916651Y-31364962D01*
X86909419Y-31344750D01*
X86904203Y-31323926D01*
X86901053Y-31302691D01*
X86900000Y-31281250D01*
X86900000Y-30768750D01*
X86901053Y-30747309D01*
X86904203Y-30726074D01*
X86909419Y-30705250D01*
X86916651Y-30685038D01*
X86925830Y-30665632D01*
X86936866Y-30647219D01*
X86949654Y-30629976D01*
X86964070Y-30614070D01*
X86979976Y-30599654D01*
X86997219Y-30586866D01*
X87015632Y-30575830D01*
X87035038Y-30566651D01*
X87055250Y-30559419D01*
X87076074Y-30554203D01*
X87097309Y-30551053D01*
X87118750Y-30550000D01*
X87556250Y-30550000D01*
X87577691Y-30551053D01*
G37*
G04 #@! TD.AperFunction*
G04 #@! TA.AperFunction,SMDPad,CuDef*
G36*
X89152691Y-30551053D02*
G01*
X89173926Y-30554203D01*
X89194750Y-30559419D01*
X89214962Y-30566651D01*
X89234368Y-30575830D01*
X89252781Y-30586866D01*
X89270024Y-30599654D01*
X89285930Y-30614070D01*
X89300346Y-30629976D01*
X89313134Y-30647219D01*
X89324170Y-30665632D01*
X89333349Y-30685038D01*
X89340581Y-30705250D01*
X89345797Y-30726074D01*
X89348947Y-30747309D01*
X89350000Y-30768750D01*
X89350000Y-31281250D01*
X89348947Y-31302691D01*
X89345797Y-31323926D01*
X89340581Y-31344750D01*
X89333349Y-31364962D01*
X89324170Y-31384368D01*
X89313134Y-31402781D01*
X89300346Y-31420024D01*
X89285930Y-31435930D01*
X89270024Y-31450346D01*
X89252781Y-31463134D01*
X89234368Y-31474170D01*
X89214962Y-31483349D01*
X89194750Y-31490581D01*
X89173926Y-31495797D01*
X89152691Y-31498947D01*
X89131250Y-31500000D01*
X88693750Y-31500000D01*
X88672309Y-31498947D01*
X88651074Y-31495797D01*
X88630250Y-31490581D01*
X88610038Y-31483349D01*
X88590632Y-31474170D01*
X88572219Y-31463134D01*
X88554976Y-31450346D01*
X88539070Y-31435930D01*
X88524654Y-31420024D01*
X88511866Y-31402781D01*
X88500830Y-31384368D01*
X88491651Y-31364962D01*
X88484419Y-31344750D01*
X88479203Y-31323926D01*
X88476053Y-31302691D01*
X88475000Y-31281250D01*
X88475000Y-30768750D01*
X88476053Y-30747309D01*
X88479203Y-30726074D01*
X88484419Y-30705250D01*
X88491651Y-30685038D01*
X88500830Y-30665632D01*
X88511866Y-30647219D01*
X88524654Y-30629976D01*
X88539070Y-30614070D01*
X88554976Y-30599654D01*
X88572219Y-30586866D01*
X88590632Y-30575830D01*
X88610038Y-30566651D01*
X88630250Y-30559419D01*
X88651074Y-30554203D01*
X88672309Y-30551053D01*
X88693750Y-30550000D01*
X89131250Y-30550000D01*
X89152691Y-30551053D01*
G37*
G04 #@! TD.AperFunction*
G04 #@! TA.AperFunction,SMDPad,CuDef*
G36*
X121690191Y-30726053D02*
G01*
X121711426Y-30729203D01*
X121732250Y-30734419D01*
X121752462Y-30741651D01*
X121771868Y-30750830D01*
X121790281Y-30761866D01*
X121807524Y-30774654D01*
X121823430Y-30789070D01*
X121837846Y-30804976D01*
X121850634Y-30822219D01*
X121861670Y-30840632D01*
X121870849Y-30860038D01*
X121878081Y-30880250D01*
X121883297Y-30901074D01*
X121886447Y-30922309D01*
X121887500Y-30943750D01*
X121887500Y-31456250D01*
X121886447Y-31477691D01*
X121883297Y-31498926D01*
X121878081Y-31519750D01*
X121870849Y-31539962D01*
X121861670Y-31559368D01*
X121850634Y-31577781D01*
X121837846Y-31595024D01*
X121823430Y-31610930D01*
X121807524Y-31625346D01*
X121790281Y-31638134D01*
X121771868Y-31649170D01*
X121752462Y-31658349D01*
X121732250Y-31665581D01*
X121711426Y-31670797D01*
X121690191Y-31673947D01*
X121668750Y-31675000D01*
X121231250Y-31675000D01*
X121209809Y-31673947D01*
X121188574Y-31670797D01*
X121167750Y-31665581D01*
X121147538Y-31658349D01*
X121128132Y-31649170D01*
X121109719Y-31638134D01*
X121092476Y-31625346D01*
X121076570Y-31610930D01*
X121062154Y-31595024D01*
X121049366Y-31577781D01*
X121038330Y-31559368D01*
X121029151Y-31539962D01*
X121021919Y-31519750D01*
X121016703Y-31498926D01*
X121013553Y-31477691D01*
X121012500Y-31456250D01*
X121012500Y-30943750D01*
X121013553Y-30922309D01*
X121016703Y-30901074D01*
X121021919Y-30880250D01*
X121029151Y-30860038D01*
X121038330Y-30840632D01*
X121049366Y-30822219D01*
X121062154Y-30804976D01*
X121076570Y-30789070D01*
X121092476Y-30774654D01*
X121109719Y-30761866D01*
X121128132Y-30750830D01*
X121147538Y-30741651D01*
X121167750Y-30734419D01*
X121188574Y-30729203D01*
X121209809Y-30726053D01*
X121231250Y-30725000D01*
X121668750Y-30725000D01*
X121690191Y-30726053D01*
G37*
G04 #@! TD.AperFunction*
G04 #@! TA.AperFunction,SMDPad,CuDef*
G36*
X123265191Y-30726053D02*
G01*
X123286426Y-30729203D01*
X123307250Y-30734419D01*
X123327462Y-30741651D01*
X123346868Y-30750830D01*
X123365281Y-30761866D01*
X123382524Y-30774654D01*
X123398430Y-30789070D01*
X123412846Y-30804976D01*
X123425634Y-30822219D01*
X123436670Y-30840632D01*
X123445849Y-30860038D01*
X123453081Y-30880250D01*
X123458297Y-30901074D01*
X123461447Y-30922309D01*
X123462500Y-30943750D01*
X123462500Y-31456250D01*
X123461447Y-31477691D01*
X123458297Y-31498926D01*
X123453081Y-31519750D01*
X123445849Y-31539962D01*
X123436670Y-31559368D01*
X123425634Y-31577781D01*
X123412846Y-31595024D01*
X123398430Y-31610930D01*
X123382524Y-31625346D01*
X123365281Y-31638134D01*
X123346868Y-31649170D01*
X123327462Y-31658349D01*
X123307250Y-31665581D01*
X123286426Y-31670797D01*
X123265191Y-31673947D01*
X123243750Y-31675000D01*
X122806250Y-31675000D01*
X122784809Y-31673947D01*
X122763574Y-31670797D01*
X122742750Y-31665581D01*
X122722538Y-31658349D01*
X122703132Y-31649170D01*
X122684719Y-31638134D01*
X122667476Y-31625346D01*
X122651570Y-31610930D01*
X122637154Y-31595024D01*
X122624366Y-31577781D01*
X122613330Y-31559368D01*
X122604151Y-31539962D01*
X122596919Y-31519750D01*
X122591703Y-31498926D01*
X122588553Y-31477691D01*
X122587500Y-31456250D01*
X122587500Y-30943750D01*
X122588553Y-30922309D01*
X122591703Y-30901074D01*
X122596919Y-30880250D01*
X122604151Y-30860038D01*
X122613330Y-30840632D01*
X122624366Y-30822219D01*
X122637154Y-30804976D01*
X122651570Y-30789070D01*
X122667476Y-30774654D01*
X122684719Y-30761866D01*
X122703132Y-30750830D01*
X122722538Y-30741651D01*
X122742750Y-30734419D01*
X122763574Y-30729203D01*
X122784809Y-30726053D01*
X122806250Y-30725000D01*
X123243750Y-30725000D01*
X123265191Y-30726053D01*
G37*
G04 #@! TD.AperFunction*
G04 #@! TA.AperFunction,SMDPad,CuDef*
G36*
X98540191Y-34876053D02*
G01*
X98561426Y-34879203D01*
X98582250Y-34884419D01*
X98602462Y-34891651D01*
X98621868Y-34900830D01*
X98640281Y-34911866D01*
X98657524Y-34924654D01*
X98673430Y-34939070D01*
X98687846Y-34954976D01*
X98700634Y-34972219D01*
X98711670Y-34990632D01*
X98720849Y-35010038D01*
X98728081Y-35030250D01*
X98733297Y-35051074D01*
X98736447Y-35072309D01*
X98737500Y-35093750D01*
X98737500Y-35606250D01*
X98736447Y-35627691D01*
X98733297Y-35648926D01*
X98728081Y-35669750D01*
X98720849Y-35689962D01*
X98711670Y-35709368D01*
X98700634Y-35727781D01*
X98687846Y-35745024D01*
X98673430Y-35760930D01*
X98657524Y-35775346D01*
X98640281Y-35788134D01*
X98621868Y-35799170D01*
X98602462Y-35808349D01*
X98582250Y-35815581D01*
X98561426Y-35820797D01*
X98540191Y-35823947D01*
X98518750Y-35825000D01*
X98081250Y-35825000D01*
X98059809Y-35823947D01*
X98038574Y-35820797D01*
X98017750Y-35815581D01*
X97997538Y-35808349D01*
X97978132Y-35799170D01*
X97959719Y-35788134D01*
X97942476Y-35775346D01*
X97926570Y-35760930D01*
X97912154Y-35745024D01*
X97899366Y-35727781D01*
X97888330Y-35709368D01*
X97879151Y-35689962D01*
X97871919Y-35669750D01*
X97866703Y-35648926D01*
X97863553Y-35627691D01*
X97862500Y-35606250D01*
X97862500Y-35093750D01*
X97863553Y-35072309D01*
X97866703Y-35051074D01*
X97871919Y-35030250D01*
X97879151Y-35010038D01*
X97888330Y-34990632D01*
X97899366Y-34972219D01*
X97912154Y-34954976D01*
X97926570Y-34939070D01*
X97942476Y-34924654D01*
X97959719Y-34911866D01*
X97978132Y-34900830D01*
X97997538Y-34891651D01*
X98017750Y-34884419D01*
X98038574Y-34879203D01*
X98059809Y-34876053D01*
X98081250Y-34875000D01*
X98518750Y-34875000D01*
X98540191Y-34876053D01*
G37*
G04 #@! TD.AperFunction*
G04 #@! TA.AperFunction,SMDPad,CuDef*
G36*
X100115191Y-34876053D02*
G01*
X100136426Y-34879203D01*
X100157250Y-34884419D01*
X100177462Y-34891651D01*
X100196868Y-34900830D01*
X100215281Y-34911866D01*
X100232524Y-34924654D01*
X100248430Y-34939070D01*
X100262846Y-34954976D01*
X100275634Y-34972219D01*
X100286670Y-34990632D01*
X100295849Y-35010038D01*
X100303081Y-35030250D01*
X100308297Y-35051074D01*
X100311447Y-35072309D01*
X100312500Y-35093750D01*
X100312500Y-35606250D01*
X100311447Y-35627691D01*
X100308297Y-35648926D01*
X100303081Y-35669750D01*
X100295849Y-35689962D01*
X100286670Y-35709368D01*
X100275634Y-35727781D01*
X100262846Y-35745024D01*
X100248430Y-35760930D01*
X100232524Y-35775346D01*
X100215281Y-35788134D01*
X100196868Y-35799170D01*
X100177462Y-35808349D01*
X100157250Y-35815581D01*
X100136426Y-35820797D01*
X100115191Y-35823947D01*
X100093750Y-35825000D01*
X99656250Y-35825000D01*
X99634809Y-35823947D01*
X99613574Y-35820797D01*
X99592750Y-35815581D01*
X99572538Y-35808349D01*
X99553132Y-35799170D01*
X99534719Y-35788134D01*
X99517476Y-35775346D01*
X99501570Y-35760930D01*
X99487154Y-35745024D01*
X99474366Y-35727781D01*
X99463330Y-35709368D01*
X99454151Y-35689962D01*
X99446919Y-35669750D01*
X99441703Y-35648926D01*
X99438553Y-35627691D01*
X99437500Y-35606250D01*
X99437500Y-35093750D01*
X99438553Y-35072309D01*
X99441703Y-35051074D01*
X99446919Y-35030250D01*
X99454151Y-35010038D01*
X99463330Y-34990632D01*
X99474366Y-34972219D01*
X99487154Y-34954976D01*
X99501570Y-34939070D01*
X99517476Y-34924654D01*
X99534719Y-34911866D01*
X99553132Y-34900830D01*
X99572538Y-34891651D01*
X99592750Y-34884419D01*
X99613574Y-34879203D01*
X99634809Y-34876053D01*
X99656250Y-34875000D01*
X100093750Y-34875000D01*
X100115191Y-34876053D01*
G37*
G04 #@! TD.AperFunction*
G04 #@! TA.AperFunction,SMDPad,CuDef*
G36*
X112152691Y-35226053D02*
G01*
X112173926Y-35229203D01*
X112194750Y-35234419D01*
X112214962Y-35241651D01*
X112234368Y-35250830D01*
X112252781Y-35261866D01*
X112270024Y-35274654D01*
X112285930Y-35289070D01*
X112300346Y-35304976D01*
X112313134Y-35322219D01*
X112324170Y-35340632D01*
X112333349Y-35360038D01*
X112340581Y-35380250D01*
X112345797Y-35401074D01*
X112348947Y-35422309D01*
X112350000Y-35443750D01*
X112350000Y-35956250D01*
X112348947Y-35977691D01*
X112345797Y-35998926D01*
X112340581Y-36019750D01*
X112333349Y-36039962D01*
X112324170Y-36059368D01*
X112313134Y-36077781D01*
X112300346Y-36095024D01*
X112285930Y-36110930D01*
X112270024Y-36125346D01*
X112252781Y-36138134D01*
X112234368Y-36149170D01*
X112214962Y-36158349D01*
X112194750Y-36165581D01*
X112173926Y-36170797D01*
X112152691Y-36173947D01*
X112131250Y-36175000D01*
X111693750Y-36175000D01*
X111672309Y-36173947D01*
X111651074Y-36170797D01*
X111630250Y-36165581D01*
X111610038Y-36158349D01*
X111590632Y-36149170D01*
X111572219Y-36138134D01*
X111554976Y-36125346D01*
X111539070Y-36110930D01*
X111524654Y-36095024D01*
X111511866Y-36077781D01*
X111500830Y-36059368D01*
X111491651Y-36039962D01*
X111484419Y-36019750D01*
X111479203Y-35998926D01*
X111476053Y-35977691D01*
X111475000Y-35956250D01*
X111475000Y-35443750D01*
X111476053Y-35422309D01*
X111479203Y-35401074D01*
X111484419Y-35380250D01*
X111491651Y-35360038D01*
X111500830Y-35340632D01*
X111511866Y-35322219D01*
X111524654Y-35304976D01*
X111539070Y-35289070D01*
X111554976Y-35274654D01*
X111572219Y-35261866D01*
X111590632Y-35250830D01*
X111610038Y-35241651D01*
X111630250Y-35234419D01*
X111651074Y-35229203D01*
X111672309Y-35226053D01*
X111693750Y-35225000D01*
X112131250Y-35225000D01*
X112152691Y-35226053D01*
G37*
G04 #@! TD.AperFunction*
G04 #@! TA.AperFunction,SMDPad,CuDef*
G36*
X113727691Y-35226053D02*
G01*
X113748926Y-35229203D01*
X113769750Y-35234419D01*
X113789962Y-35241651D01*
X113809368Y-35250830D01*
X113827781Y-35261866D01*
X113845024Y-35274654D01*
X113860930Y-35289070D01*
X113875346Y-35304976D01*
X113888134Y-35322219D01*
X113899170Y-35340632D01*
X113908349Y-35360038D01*
X113915581Y-35380250D01*
X113920797Y-35401074D01*
X113923947Y-35422309D01*
X113925000Y-35443750D01*
X113925000Y-35956250D01*
X113923947Y-35977691D01*
X113920797Y-35998926D01*
X113915581Y-36019750D01*
X113908349Y-36039962D01*
X113899170Y-36059368D01*
X113888134Y-36077781D01*
X113875346Y-36095024D01*
X113860930Y-36110930D01*
X113845024Y-36125346D01*
X113827781Y-36138134D01*
X113809368Y-36149170D01*
X113789962Y-36158349D01*
X113769750Y-36165581D01*
X113748926Y-36170797D01*
X113727691Y-36173947D01*
X113706250Y-36175000D01*
X113268750Y-36175000D01*
X113247309Y-36173947D01*
X113226074Y-36170797D01*
X113205250Y-36165581D01*
X113185038Y-36158349D01*
X113165632Y-36149170D01*
X113147219Y-36138134D01*
X113129976Y-36125346D01*
X113114070Y-36110930D01*
X113099654Y-36095024D01*
X113086866Y-36077781D01*
X113075830Y-36059368D01*
X113066651Y-36039962D01*
X113059419Y-36019750D01*
X113054203Y-35998926D01*
X113051053Y-35977691D01*
X113050000Y-35956250D01*
X113050000Y-35443750D01*
X113051053Y-35422309D01*
X113054203Y-35401074D01*
X113059419Y-35380250D01*
X113066651Y-35360038D01*
X113075830Y-35340632D01*
X113086866Y-35322219D01*
X113099654Y-35304976D01*
X113114070Y-35289070D01*
X113129976Y-35274654D01*
X113147219Y-35261866D01*
X113165632Y-35250830D01*
X113185038Y-35241651D01*
X113205250Y-35234419D01*
X113226074Y-35229203D01*
X113247309Y-35226053D01*
X113268750Y-35225000D01*
X113706250Y-35225000D01*
X113727691Y-35226053D01*
G37*
G04 #@! TD.AperFunction*
G04 #@! TA.AperFunction,SMDPad,CuDef*
G36*
X96502691Y-44376053D02*
G01*
X96523926Y-44379203D01*
X96544750Y-44384419D01*
X96564962Y-44391651D01*
X96584368Y-44400830D01*
X96602781Y-44411866D01*
X96620024Y-44424654D01*
X96635930Y-44439070D01*
X96650346Y-44454976D01*
X96663134Y-44472219D01*
X96674170Y-44490632D01*
X96683349Y-44510038D01*
X96690581Y-44530250D01*
X96695797Y-44551074D01*
X96698947Y-44572309D01*
X96700000Y-44593750D01*
X96700000Y-45106250D01*
X96698947Y-45127691D01*
X96695797Y-45148926D01*
X96690581Y-45169750D01*
X96683349Y-45189962D01*
X96674170Y-45209368D01*
X96663134Y-45227781D01*
X96650346Y-45245024D01*
X96635930Y-45260930D01*
X96620024Y-45275346D01*
X96602781Y-45288134D01*
X96584368Y-45299170D01*
X96564962Y-45308349D01*
X96544750Y-45315581D01*
X96523926Y-45320797D01*
X96502691Y-45323947D01*
X96481250Y-45325000D01*
X96043750Y-45325000D01*
X96022309Y-45323947D01*
X96001074Y-45320797D01*
X95980250Y-45315581D01*
X95960038Y-45308349D01*
X95940632Y-45299170D01*
X95922219Y-45288134D01*
X95904976Y-45275346D01*
X95889070Y-45260930D01*
X95874654Y-45245024D01*
X95861866Y-45227781D01*
X95850830Y-45209368D01*
X95841651Y-45189962D01*
X95834419Y-45169750D01*
X95829203Y-45148926D01*
X95826053Y-45127691D01*
X95825000Y-45106250D01*
X95825000Y-44593750D01*
X95826053Y-44572309D01*
X95829203Y-44551074D01*
X95834419Y-44530250D01*
X95841651Y-44510038D01*
X95850830Y-44490632D01*
X95861866Y-44472219D01*
X95874654Y-44454976D01*
X95889070Y-44439070D01*
X95904976Y-44424654D01*
X95922219Y-44411866D01*
X95940632Y-44400830D01*
X95960038Y-44391651D01*
X95980250Y-44384419D01*
X96001074Y-44379203D01*
X96022309Y-44376053D01*
X96043750Y-44375000D01*
X96481250Y-44375000D01*
X96502691Y-44376053D01*
G37*
G04 #@! TD.AperFunction*
G04 #@! TA.AperFunction,SMDPad,CuDef*
G36*
X98077691Y-44376053D02*
G01*
X98098926Y-44379203D01*
X98119750Y-44384419D01*
X98139962Y-44391651D01*
X98159368Y-44400830D01*
X98177781Y-44411866D01*
X98195024Y-44424654D01*
X98210930Y-44439070D01*
X98225346Y-44454976D01*
X98238134Y-44472219D01*
X98249170Y-44490632D01*
X98258349Y-44510038D01*
X98265581Y-44530250D01*
X98270797Y-44551074D01*
X98273947Y-44572309D01*
X98275000Y-44593750D01*
X98275000Y-45106250D01*
X98273947Y-45127691D01*
X98270797Y-45148926D01*
X98265581Y-45169750D01*
X98258349Y-45189962D01*
X98249170Y-45209368D01*
X98238134Y-45227781D01*
X98225346Y-45245024D01*
X98210930Y-45260930D01*
X98195024Y-45275346D01*
X98177781Y-45288134D01*
X98159368Y-45299170D01*
X98139962Y-45308349D01*
X98119750Y-45315581D01*
X98098926Y-45320797D01*
X98077691Y-45323947D01*
X98056250Y-45325000D01*
X97618750Y-45325000D01*
X97597309Y-45323947D01*
X97576074Y-45320797D01*
X97555250Y-45315581D01*
X97535038Y-45308349D01*
X97515632Y-45299170D01*
X97497219Y-45288134D01*
X97479976Y-45275346D01*
X97464070Y-45260930D01*
X97449654Y-45245024D01*
X97436866Y-45227781D01*
X97425830Y-45209368D01*
X97416651Y-45189962D01*
X97409419Y-45169750D01*
X97404203Y-45148926D01*
X97401053Y-45127691D01*
X97400000Y-45106250D01*
X97400000Y-44593750D01*
X97401053Y-44572309D01*
X97404203Y-44551074D01*
X97409419Y-44530250D01*
X97416651Y-44510038D01*
X97425830Y-44490632D01*
X97436866Y-44472219D01*
X97449654Y-44454976D01*
X97464070Y-44439070D01*
X97479976Y-44424654D01*
X97497219Y-44411866D01*
X97515632Y-44400830D01*
X97535038Y-44391651D01*
X97555250Y-44384419D01*
X97576074Y-44379203D01*
X97597309Y-44376053D01*
X97618750Y-44375000D01*
X98056250Y-44375000D01*
X98077691Y-44376053D01*
G37*
G04 #@! TD.AperFunction*
G04 #@! TA.AperFunction,SMDPad,CuDef*
G36*
X112490191Y-44726053D02*
G01*
X112511426Y-44729203D01*
X112532250Y-44734419D01*
X112552462Y-44741651D01*
X112571868Y-44750830D01*
X112590281Y-44761866D01*
X112607524Y-44774654D01*
X112623430Y-44789070D01*
X112637846Y-44804976D01*
X112650634Y-44822219D01*
X112661670Y-44840632D01*
X112670849Y-44860038D01*
X112678081Y-44880250D01*
X112683297Y-44901074D01*
X112686447Y-44922309D01*
X112687500Y-44943750D01*
X112687500Y-45456250D01*
X112686447Y-45477691D01*
X112683297Y-45498926D01*
X112678081Y-45519750D01*
X112670849Y-45539962D01*
X112661670Y-45559368D01*
X112650634Y-45577781D01*
X112637846Y-45595024D01*
X112623430Y-45610930D01*
X112607524Y-45625346D01*
X112590281Y-45638134D01*
X112571868Y-45649170D01*
X112552462Y-45658349D01*
X112532250Y-45665581D01*
X112511426Y-45670797D01*
X112490191Y-45673947D01*
X112468750Y-45675000D01*
X112031250Y-45675000D01*
X112009809Y-45673947D01*
X111988574Y-45670797D01*
X111967750Y-45665581D01*
X111947538Y-45658349D01*
X111928132Y-45649170D01*
X111909719Y-45638134D01*
X111892476Y-45625346D01*
X111876570Y-45610930D01*
X111862154Y-45595024D01*
X111849366Y-45577781D01*
X111838330Y-45559368D01*
X111829151Y-45539962D01*
X111821919Y-45519750D01*
X111816703Y-45498926D01*
X111813553Y-45477691D01*
X111812500Y-45456250D01*
X111812500Y-44943750D01*
X111813553Y-44922309D01*
X111816703Y-44901074D01*
X111821919Y-44880250D01*
X111829151Y-44860038D01*
X111838330Y-44840632D01*
X111849366Y-44822219D01*
X111862154Y-44804976D01*
X111876570Y-44789070D01*
X111892476Y-44774654D01*
X111909719Y-44761866D01*
X111928132Y-44750830D01*
X111947538Y-44741651D01*
X111967750Y-44734419D01*
X111988574Y-44729203D01*
X112009809Y-44726053D01*
X112031250Y-44725000D01*
X112468750Y-44725000D01*
X112490191Y-44726053D01*
G37*
G04 #@! TD.AperFunction*
G04 #@! TA.AperFunction,SMDPad,CuDef*
G36*
X114065191Y-44726053D02*
G01*
X114086426Y-44729203D01*
X114107250Y-44734419D01*
X114127462Y-44741651D01*
X114146868Y-44750830D01*
X114165281Y-44761866D01*
X114182524Y-44774654D01*
X114198430Y-44789070D01*
X114212846Y-44804976D01*
X114225634Y-44822219D01*
X114236670Y-44840632D01*
X114245849Y-44860038D01*
X114253081Y-44880250D01*
X114258297Y-44901074D01*
X114261447Y-44922309D01*
X114262500Y-44943750D01*
X114262500Y-45456250D01*
X114261447Y-45477691D01*
X114258297Y-45498926D01*
X114253081Y-45519750D01*
X114245849Y-45539962D01*
X114236670Y-45559368D01*
X114225634Y-45577781D01*
X114212846Y-45595024D01*
X114198430Y-45610930D01*
X114182524Y-45625346D01*
X114165281Y-45638134D01*
X114146868Y-45649170D01*
X114127462Y-45658349D01*
X114107250Y-45665581D01*
X114086426Y-45670797D01*
X114065191Y-45673947D01*
X114043750Y-45675000D01*
X113606250Y-45675000D01*
X113584809Y-45673947D01*
X113563574Y-45670797D01*
X113542750Y-45665581D01*
X113522538Y-45658349D01*
X113503132Y-45649170D01*
X113484719Y-45638134D01*
X113467476Y-45625346D01*
X113451570Y-45610930D01*
X113437154Y-45595024D01*
X113424366Y-45577781D01*
X113413330Y-45559368D01*
X113404151Y-45539962D01*
X113396919Y-45519750D01*
X113391703Y-45498926D01*
X113388553Y-45477691D01*
X113387500Y-45456250D01*
X113387500Y-44943750D01*
X113388553Y-44922309D01*
X113391703Y-44901074D01*
X113396919Y-44880250D01*
X113404151Y-44860038D01*
X113413330Y-44840632D01*
X113424366Y-44822219D01*
X113437154Y-44804976D01*
X113451570Y-44789070D01*
X113467476Y-44774654D01*
X113484719Y-44761866D01*
X113503132Y-44750830D01*
X113522538Y-44741651D01*
X113542750Y-44734419D01*
X113563574Y-44729203D01*
X113584809Y-44726053D01*
X113606250Y-44725000D01*
X114043750Y-44725000D01*
X114065191Y-44726053D01*
G37*
G04 #@! TD.AperFunction*
D11*
X117725000Y-27950000D03*
X92475000Y-24975000D03*
X114225000Y-22800000D03*
X90700000Y-31025000D03*
X120075000Y-31200000D03*
X101900000Y-35350000D03*
X110650000Y-35700000D03*
X99150000Y-44850000D03*
X110825000Y-45200000D03*
D12*
X92475000Y-24975000D02*
X91300000Y-24975000D01*
X114225000Y-22800000D02*
X115750000Y-22800000D01*
X90700000Y-31025000D02*
X88912500Y-31025000D01*
X120075000Y-31200000D02*
X121450000Y-31200000D01*
X101900000Y-35350000D02*
X99875000Y-35350000D01*
X110650000Y-35700000D02*
X111912500Y-35700000D01*
X99150000Y-44850000D02*
X97837500Y-44850000D01*
X110825000Y-45200000D02*
X112250000Y-45200000D01*
D13*
G36*
X96338425Y-18744137D02*
G01*
X97876344Y-19019744D01*
X99415107Y-19532532D01*
X100912733Y-20283634D01*
X102644657Y-21694198D01*
X104233174Y-23362886D01*
X104479123Y-23705642D01*
X104484268Y-23716093D01*
X104521268Y-23764377D01*
X104535583Y-23784326D01*
X104543221Y-23793024D01*
X104572332Y-23831013D01*
X104590885Y-23847304D01*
X104607176Y-23865857D01*
X104645166Y-23894969D01*
X104681124Y-23926544D01*
X104702497Y-23938902D01*
X104722096Y-23953921D01*
X104765033Y-23975061D01*
X104806462Y-23999016D01*
X104829834Y-24006966D01*
X104851988Y-24017874D01*
X104898234Y-24030233D01*
X104943531Y-24045642D01*
X104968004Y-24048880D01*
X104991861Y-24055256D01*
X105039619Y-24058356D01*
X105087063Y-24064633D01*
X105111701Y-24063034D01*
X105136339Y-24064633D01*
X105183788Y-24058355D01*
X105231540Y-24055256D01*
X105255390Y-24048882D01*
X105279871Y-24045643D01*
X105325181Y-24030230D01*
X105371413Y-24017874D01*
X105393564Y-24006968D01*
X105416940Y-23999016D01*
X105458371Y-23975060D01*
X105501306Y-23953921D01*
X105520905Y-23938902D01*
X105542278Y-23926544D01*
X105578236Y-23894969D01*
X105616226Y-23865857D01*
X105632517Y-23847304D01*
X105651070Y-23831013D01*
X105680181Y-23793024D01*
X105687819Y-23784326D01*
X105702134Y-23764376D01*
X105739134Y-23716093D01*
X105744279Y-23705643D01*
X106004836Y-23342529D01*
X106539810Y-22698061D01*
X113190000Y-22698061D01*
X113190000Y-22901939D01*
X113229774Y-23101898D01*
X113307795Y-23290256D01*
X113421063Y-23459774D01*
X113565226Y-23603937D01*
X113734744Y-23717205D01*
X113923102Y-23795226D01*
X114123061Y-23835000D01*
X114326939Y-23835000D01*
X114526898Y-23795226D01*
X114715256Y-23717205D01*
X114880167Y-23607016D01*
X114925385Y-23662115D01*
X115055225Y-23768671D01*
X115203358Y-23847850D01*
X115364092Y-23896608D01*
X115531250Y-23913072D01*
X115968750Y-23913072D01*
X116135908Y-23896608D01*
X116296642Y-23847850D01*
X116444775Y-23768671D01*
X116466430Y-23750900D01*
X116533006Y-23805537D01*
X116643320Y-23864502D01*
X116763018Y-23900812D01*
X116887500Y-23913072D01*
X117039250Y-23910000D01*
X117198000Y-23751250D01*
X117198000Y-22927000D01*
X117452000Y-22927000D01*
X117452000Y-23751250D01*
X117610750Y-23910000D01*
X117762500Y-23913072D01*
X117886982Y-23900812D01*
X118006680Y-23864502D01*
X118116994Y-23805537D01*
X118213685Y-23726185D01*
X118293037Y-23629494D01*
X118352002Y-23519180D01*
X118388312Y-23399482D01*
X118400572Y-23275000D01*
X118397500Y-23085750D01*
X118238750Y-22927000D01*
X117452000Y-22927000D01*
X117198000Y-22927000D01*
X117178000Y-22927000D01*
X117178000Y-22673000D01*
X117198000Y-22673000D01*
X117198000Y-21848750D01*
X117452000Y-21848750D01*
X117452000Y-22673000D01*
X118238750Y-22673000D01*
X118397500Y-22514250D01*
X118400572Y-22325000D01*
X118388312Y-22200518D01*
X118352002Y-22080820D01*
X118293037Y-21970506D01*
X118213685Y-21873815D01*
X118116994Y-21794463D01*
X118006680Y-21735498D01*
X117886982Y-21699188D01*
X117762500Y-21686928D01*
X117610750Y-21690000D01*
X117452000Y-21848750D01*
X117198000Y-21848750D01*
X117039250Y-21690000D01*
X116887500Y-21686928D01*
X116763018Y-21699188D01*
X116643320Y-21735498D01*
X116533006Y-21794463D01*
X116466430Y-21849100D01*
X116444775Y-21831329D01*
X116296642Y-21752150D01*
X116135908Y-21703392D01*
X115968750Y-21686928D01*
X115531250Y-21686928D01*
X115364092Y-21703392D01*
X115203358Y-21752150D01*
X115055225Y-21831329D01*
X114925385Y-21937885D01*
X114880167Y-21992984D01*
X114715256Y-21882795D01*
X114526898Y-21804774D01*
X114326939Y-21765000D01*
X114123061Y-21765000D01*
X113923102Y-21804774D01*
X113734744Y-21882795D01*
X113565226Y-21996063D01*
X113421063Y-22140226D01*
X113307795Y-22309744D01*
X113229774Y-22498102D01*
X113190000Y-22698061D01*
X106539810Y-22698061D01*
X106883090Y-22284522D01*
X107897678Y-21345081D01*
X109036435Y-20521127D01*
X110267908Y-19830068D01*
X111559613Y-19288163D01*
X112878380Y-18910297D01*
X114190653Y-18709637D01*
X115470359Y-18697026D01*
X117138081Y-18919503D01*
X118681896Y-19341649D01*
X120092927Y-19946100D01*
X121367095Y-20717139D01*
X122499769Y-21639833D01*
X123485565Y-22699714D01*
X124318323Y-23882436D01*
X124991241Y-25173513D01*
X125497086Y-26558226D01*
X125828371Y-28021629D01*
X125977454Y-29548551D01*
X125936613Y-31123795D01*
X125698012Y-32732068D01*
X125253663Y-34358099D01*
X124595366Y-35986618D01*
X123717963Y-37596205D01*
X122434393Y-39358448D01*
X120555184Y-41484321D01*
X118175231Y-43865238D01*
X115408415Y-46380447D01*
X115407654Y-46381016D01*
X115381527Y-46404890D01*
X115355678Y-46428388D01*
X115355049Y-46429084D01*
X112504496Y-49033788D01*
X112490943Y-49044972D01*
X112477854Y-49058132D01*
X112464160Y-49070645D01*
X112452419Y-49083705D01*
X109822587Y-51727812D01*
X109808185Y-51741042D01*
X109797120Y-51753417D01*
X109785436Y-51765164D01*
X109773093Y-51780287D01*
X107506951Y-54314628D01*
X107489056Y-54333568D01*
X107482862Y-54341568D01*
X107476143Y-54349082D01*
X107460811Y-54370048D01*
X105689727Y-56657480D01*
X105136009Y-57368023D01*
X105092254Y-57397659D01*
X104817609Y-57079329D01*
X104792443Y-57044806D01*
X104783445Y-57036514D01*
X103230496Y-55047654D01*
X103217315Y-55029418D01*
X103208271Y-55019190D01*
X103199884Y-55008449D01*
X103184395Y-54992188D01*
X101148323Y-52689602D01*
X101137813Y-52676382D01*
X101124400Y-52662547D01*
X101111660Y-52648139D01*
X101099311Y-52636667D01*
X98837654Y-50303791D01*
X98826055Y-50290554D01*
X98812526Y-50277872D01*
X98799633Y-50264573D01*
X98786218Y-50253211D01*
X96529311Y-48137606D01*
X96521745Y-48129480D01*
X96502977Y-48112922D01*
X96484727Y-48095814D01*
X96475926Y-48089055D01*
X93760165Y-45692999D01*
X93374987Y-45325000D01*
X95186928Y-45325000D01*
X95199188Y-45449482D01*
X95235498Y-45569180D01*
X95294463Y-45679494D01*
X95373815Y-45776185D01*
X95470506Y-45855537D01*
X95580820Y-45914502D01*
X95700518Y-45950812D01*
X95825000Y-45963072D01*
X95976750Y-45960000D01*
X96135500Y-45801250D01*
X96135500Y-44977000D01*
X95348750Y-44977000D01*
X95190000Y-45135750D01*
X95186928Y-45325000D01*
X93374987Y-45325000D01*
X92380639Y-44375000D01*
X95186928Y-44375000D01*
X95190000Y-44564250D01*
X95348750Y-44723000D01*
X96135500Y-44723000D01*
X96135500Y-43898750D01*
X96389500Y-43898750D01*
X96389500Y-44723000D01*
X96409500Y-44723000D01*
X96409500Y-44977000D01*
X96389500Y-44977000D01*
X96389500Y-45801250D01*
X96548250Y-45960000D01*
X96700000Y-45963072D01*
X96824482Y-45950812D01*
X96944180Y-45914502D01*
X97054494Y-45855537D01*
X97121070Y-45800900D01*
X97142725Y-45818671D01*
X97290858Y-45897850D01*
X97451592Y-45946608D01*
X97618750Y-45963072D01*
X98056250Y-45963072D01*
X98223408Y-45946608D01*
X98384142Y-45897850D01*
X98532275Y-45818671D01*
X98624049Y-45743355D01*
X98659744Y-45767205D01*
X98848102Y-45845226D01*
X99048061Y-45885000D01*
X99251939Y-45885000D01*
X99451898Y-45845226D01*
X99640256Y-45767205D01*
X99809774Y-45653937D01*
X99953937Y-45509774D01*
X100067205Y-45340256D01*
X100145226Y-45151898D01*
X100155934Y-45098061D01*
X109790000Y-45098061D01*
X109790000Y-45301939D01*
X109829774Y-45501898D01*
X109907795Y-45690256D01*
X110021063Y-45859774D01*
X110165226Y-46003937D01*
X110334744Y-46117205D01*
X110523102Y-46195226D01*
X110723061Y-46235000D01*
X110926939Y-46235000D01*
X111126898Y-46195226D01*
X111315256Y-46117205D01*
X111415582Y-46050170D01*
X111425385Y-46062115D01*
X111555225Y-46168671D01*
X111703358Y-46247850D01*
X111864092Y-46296608D01*
X112031250Y-46313072D01*
X112468750Y-46313072D01*
X112635908Y-46296608D01*
X112796642Y-46247850D01*
X112944775Y-46168671D01*
X112966430Y-46150900D01*
X113033006Y-46205537D01*
X113143320Y-46264502D01*
X113263018Y-46300812D01*
X113387500Y-46313072D01*
X113539250Y-46310000D01*
X113698000Y-46151250D01*
X113698000Y-45327000D01*
X113952000Y-45327000D01*
X113952000Y-46151250D01*
X114110750Y-46310000D01*
X114262500Y-46313072D01*
X114386982Y-46300812D01*
X114506680Y-46264502D01*
X114616994Y-46205537D01*
X114713685Y-46126185D01*
X114793037Y-46029494D01*
X114852002Y-45919180D01*
X114888312Y-45799482D01*
X114900572Y-45675000D01*
X114897500Y-45485750D01*
X114738750Y-45327000D01*
X113952000Y-45327000D01*
X113698000Y-45327000D01*
X113678000Y-45327000D01*
X113678000Y-45073000D01*
X113698000Y-45073000D01*
X113698000Y-44248750D01*
X113952000Y-44248750D01*
X113952000Y-45073000D01*
X114738750Y-45073000D01*
X114897500Y-44914250D01*
X114900572Y-44725000D01*
X114888312Y-44600518D01*
X114852002Y-44480820D01*
X114793037Y-44370506D01*
X114713685Y-44273815D01*
X114616994Y-44194463D01*
X114506680Y-44135498D01*
X114386982Y-44099188D01*
X114262500Y-44086928D01*
X114110750Y-44090000D01*
X113952000Y-44248750D01*
X113698000Y-44248750D01*
X113539250Y-44090000D01*
X113387500Y-44086928D01*
X113263018Y-44099188D01*
X113143320Y-44135498D01*
X113033006Y-44194463D01*
X112966430Y-44249100D01*
X112944775Y-44231329D01*
X112796642Y-44152150D01*
X112635908Y-44103392D01*
X112468750Y-44086928D01*
X112031250Y-44086928D01*
X111864092Y-44103392D01*
X111703358Y-44152150D01*
X111555225Y-44231329D01*
X111425385Y-44337885D01*
X111415582Y-44349830D01*
X111315256Y-44282795D01*
X111126898Y-44204774D01*
X110926939Y-44165000D01*
X110723061Y-44165000D01*
X110523102Y-44204774D01*
X110334744Y-44282795D01*
X110165226Y-44396063D01*
X110021063Y-44540226D01*
X109907795Y-44709744D01*
X109829774Y-44898102D01*
X109790000Y-45098061D01*
X100155934Y-45098061D01*
X100185000Y-44951939D01*
X100185000Y-44748061D01*
X100145226Y-44548102D01*
X100067205Y-44359744D01*
X99953937Y-44190226D01*
X99809774Y-44046063D01*
X99640256Y-43932795D01*
X99451898Y-43854774D01*
X99251939Y-43815000D01*
X99048061Y-43815000D01*
X98848102Y-43854774D01*
X98659744Y-43932795D01*
X98624049Y-43956645D01*
X98532275Y-43881329D01*
X98384142Y-43802150D01*
X98223408Y-43753392D01*
X98056250Y-43736928D01*
X97618750Y-43736928D01*
X97451592Y-43753392D01*
X97290858Y-43802150D01*
X97142725Y-43881329D01*
X97121070Y-43899100D01*
X97054494Y-43844463D01*
X96944180Y-43785498D01*
X96824482Y-43749188D01*
X96700000Y-43736928D01*
X96548250Y-43740000D01*
X96389500Y-43898750D01*
X96135500Y-43898750D01*
X95976750Y-43740000D01*
X95825000Y-43736928D01*
X95700518Y-43749188D01*
X95580820Y-43785498D01*
X95470506Y-43844463D01*
X95373815Y-43923815D01*
X95294463Y-44020506D01*
X95235498Y-44130820D01*
X95199188Y-44250518D01*
X95186928Y-44375000D01*
X92380639Y-44375000D01*
X89519635Y-41641598D01*
X87963861Y-39855213D01*
X86725989Y-38153019D01*
X85776574Y-36495498D01*
X85495374Y-35825000D01*
X97224428Y-35825000D01*
X97236688Y-35949482D01*
X97272998Y-36069180D01*
X97331963Y-36179494D01*
X97411315Y-36276185D01*
X97508006Y-36355537D01*
X97618320Y-36414502D01*
X97738018Y-36450812D01*
X97862500Y-36463072D01*
X98014250Y-36460000D01*
X98173000Y-36301250D01*
X98173000Y-35477000D01*
X97386250Y-35477000D01*
X97227500Y-35635750D01*
X97224428Y-35825000D01*
X85495374Y-35825000D01*
X85096954Y-34875000D01*
X97224428Y-34875000D01*
X97227500Y-35064250D01*
X97386250Y-35223000D01*
X98173000Y-35223000D01*
X98173000Y-34398750D01*
X98427000Y-34398750D01*
X98427000Y-35223000D01*
X98447000Y-35223000D01*
X98447000Y-35477000D01*
X98427000Y-35477000D01*
X98427000Y-36301250D01*
X98585750Y-36460000D01*
X98737500Y-36463072D01*
X98861982Y-36450812D01*
X98981680Y-36414502D01*
X99091994Y-36355537D01*
X99158570Y-36300900D01*
X99180225Y-36318671D01*
X99328358Y-36397850D01*
X99489092Y-36446608D01*
X99656250Y-36463072D01*
X100093750Y-36463072D01*
X100260908Y-36446608D01*
X100421642Y-36397850D01*
X100569775Y-36318671D01*
X100699615Y-36212115D01*
X100783418Y-36110000D01*
X101196289Y-36110000D01*
X101240226Y-36153937D01*
X101409744Y-36267205D01*
X101598102Y-36345226D01*
X101798061Y-36385000D01*
X102001939Y-36385000D01*
X102201898Y-36345226D01*
X102390256Y-36267205D01*
X102559774Y-36153937D01*
X102703937Y-36009774D01*
X102817205Y-35840256D01*
X102895226Y-35651898D01*
X102905934Y-35598061D01*
X109615000Y-35598061D01*
X109615000Y-35801939D01*
X109654774Y-36001898D01*
X109732795Y-36190256D01*
X109846063Y-36359774D01*
X109990226Y-36503937D01*
X110159744Y-36617205D01*
X110348102Y-36695226D01*
X110548061Y-36735000D01*
X110751939Y-36735000D01*
X110951898Y-36695226D01*
X111140256Y-36617205D01*
X111148390Y-36611770D01*
X111217725Y-36668671D01*
X111365858Y-36747850D01*
X111526592Y-36796608D01*
X111693750Y-36813072D01*
X112131250Y-36813072D01*
X112298408Y-36796608D01*
X112459142Y-36747850D01*
X112607275Y-36668671D01*
X112628930Y-36650900D01*
X112695506Y-36705537D01*
X112805820Y-36764502D01*
X112925518Y-36800812D01*
X113050000Y-36813072D01*
X113201750Y-36810000D01*
X113360500Y-36651250D01*
X113360500Y-35827000D01*
X113614500Y-35827000D01*
X113614500Y-36651250D01*
X113773250Y-36810000D01*
X113925000Y-36813072D01*
X114049482Y-36800812D01*
X114169180Y-36764502D01*
X114279494Y-36705537D01*
X114376185Y-36626185D01*
X114455537Y-36529494D01*
X114514502Y-36419180D01*
X114550812Y-36299482D01*
X114563072Y-36175000D01*
X114560000Y-35985750D01*
X114401250Y-35827000D01*
X113614500Y-35827000D01*
X113360500Y-35827000D01*
X113340500Y-35827000D01*
X113340500Y-35573000D01*
X113360500Y-35573000D01*
X113360500Y-34748750D01*
X113614500Y-34748750D01*
X113614500Y-35573000D01*
X114401250Y-35573000D01*
X114560000Y-35414250D01*
X114563072Y-35225000D01*
X114550812Y-35100518D01*
X114514502Y-34980820D01*
X114455537Y-34870506D01*
X114376185Y-34773815D01*
X114279494Y-34694463D01*
X114169180Y-34635498D01*
X114049482Y-34599188D01*
X113925000Y-34586928D01*
X113773250Y-34590000D01*
X113614500Y-34748750D01*
X113360500Y-34748750D01*
X113201750Y-34590000D01*
X113050000Y-34586928D01*
X112925518Y-34599188D01*
X112805820Y-34635498D01*
X112695506Y-34694463D01*
X112628930Y-34749100D01*
X112607275Y-34731329D01*
X112459142Y-34652150D01*
X112298408Y-34603392D01*
X112131250Y-34586928D01*
X111693750Y-34586928D01*
X111526592Y-34603392D01*
X111365858Y-34652150D01*
X111217725Y-34731329D01*
X111148390Y-34788230D01*
X111140256Y-34782795D01*
X110951898Y-34704774D01*
X110751939Y-34665000D01*
X110548061Y-34665000D01*
X110348102Y-34704774D01*
X110159744Y-34782795D01*
X109990226Y-34896063D01*
X109846063Y-35040226D01*
X109732795Y-35209744D01*
X109654774Y-35398102D01*
X109615000Y-35598061D01*
X102905934Y-35598061D01*
X102935000Y-35451939D01*
X102935000Y-35248061D01*
X102895226Y-35048102D01*
X102817205Y-34859744D01*
X102703937Y-34690226D01*
X102559774Y-34546063D01*
X102390256Y-34432795D01*
X102201898Y-34354774D01*
X102001939Y-34315000D01*
X101798061Y-34315000D01*
X101598102Y-34354774D01*
X101409744Y-34432795D01*
X101240226Y-34546063D01*
X101196289Y-34590000D01*
X100783418Y-34590000D01*
X100699615Y-34487885D01*
X100569775Y-34381329D01*
X100421642Y-34302150D01*
X100260908Y-34253392D01*
X100093750Y-34236928D01*
X99656250Y-34236928D01*
X99489092Y-34253392D01*
X99328358Y-34302150D01*
X99180225Y-34381329D01*
X99158570Y-34399100D01*
X99091994Y-34344463D01*
X98981680Y-34285498D01*
X98861982Y-34249188D01*
X98737500Y-34236928D01*
X98585750Y-34240000D01*
X98427000Y-34398750D01*
X98173000Y-34398750D01*
X98014250Y-34240000D01*
X97862500Y-34236928D01*
X97738018Y-34249188D01*
X97618320Y-34285498D01*
X97508006Y-34344463D01*
X97411315Y-34423815D01*
X97331963Y-34520506D01*
X97272998Y-34630820D01*
X97236688Y-34750518D01*
X97224428Y-34875000D01*
X85096954Y-34875000D01*
X85078481Y-34830955D01*
X84596757Y-33102960D01*
X84340500Y-31500000D01*
X86261928Y-31500000D01*
X86274188Y-31624482D01*
X86310498Y-31744180D01*
X86369463Y-31854494D01*
X86448815Y-31951185D01*
X86545506Y-32030537D01*
X86655820Y-32089502D01*
X86775518Y-32125812D01*
X86900000Y-32138072D01*
X87051750Y-32135000D01*
X87210500Y-31976250D01*
X87210500Y-31152000D01*
X86423750Y-31152000D01*
X86265000Y-31310750D01*
X86261928Y-31500000D01*
X84340500Y-31500000D01*
X84302807Y-31264222D01*
X84273813Y-30550000D01*
X86261928Y-30550000D01*
X86265000Y-30739250D01*
X86423750Y-30898000D01*
X87210500Y-30898000D01*
X87210500Y-30073750D01*
X87464500Y-30073750D01*
X87464500Y-30898000D01*
X87484500Y-30898000D01*
X87484500Y-31152000D01*
X87464500Y-31152000D01*
X87464500Y-31976250D01*
X87623250Y-32135000D01*
X87775000Y-32138072D01*
X87899482Y-32125812D01*
X88019180Y-32089502D01*
X88129494Y-32030537D01*
X88196070Y-31975900D01*
X88217725Y-31993671D01*
X88365858Y-32072850D01*
X88526592Y-32121608D01*
X88693750Y-32138072D01*
X89131250Y-32138072D01*
X89298408Y-32121608D01*
X89459142Y-32072850D01*
X89607275Y-31993671D01*
X89737115Y-31887115D01*
X89820918Y-31785000D01*
X89996289Y-31785000D01*
X90040226Y-31828937D01*
X90209744Y-31942205D01*
X90398102Y-32020226D01*
X90598061Y-32060000D01*
X90801939Y-32060000D01*
X91001898Y-32020226D01*
X91190256Y-31942205D01*
X91359774Y-31828937D01*
X91503937Y-31684774D01*
X91617205Y-31515256D01*
X91695226Y-31326898D01*
X91735000Y-31126939D01*
X91735000Y-31098061D01*
X119040000Y-31098061D01*
X119040000Y-31301939D01*
X119079774Y-31501898D01*
X119157795Y-31690256D01*
X119271063Y-31859774D01*
X119415226Y-32003937D01*
X119584744Y-32117205D01*
X119773102Y-32195226D01*
X119973061Y-32235000D01*
X120176939Y-32235000D01*
X120376898Y-32195226D01*
X120565256Y-32117205D01*
X120635402Y-32070335D01*
X120755225Y-32168671D01*
X120903358Y-32247850D01*
X121064092Y-32296608D01*
X121231250Y-32313072D01*
X121668750Y-32313072D01*
X121835908Y-32296608D01*
X121996642Y-32247850D01*
X122144775Y-32168671D01*
X122166430Y-32150900D01*
X122233006Y-32205537D01*
X122343320Y-32264502D01*
X122463018Y-32300812D01*
X122587500Y-32313072D01*
X122739250Y-32310000D01*
X122898000Y-32151250D01*
X122898000Y-31327000D01*
X123152000Y-31327000D01*
X123152000Y-32151250D01*
X123310750Y-32310000D01*
X123462500Y-32313072D01*
X123586982Y-32300812D01*
X123706680Y-32264502D01*
X123816994Y-32205537D01*
X123913685Y-32126185D01*
X123993037Y-32029494D01*
X124052002Y-31919180D01*
X124088312Y-31799482D01*
X124100572Y-31675000D01*
X124097500Y-31485750D01*
X123938750Y-31327000D01*
X123152000Y-31327000D01*
X122898000Y-31327000D01*
X122878000Y-31327000D01*
X122878000Y-31073000D01*
X122898000Y-31073000D01*
X122898000Y-30248750D01*
X123152000Y-30248750D01*
X123152000Y-31073000D01*
X123938750Y-31073000D01*
X124097500Y-30914250D01*
X124100572Y-30725000D01*
X124088312Y-30600518D01*
X124052002Y-30480820D01*
X123993037Y-30370506D01*
X123913685Y-30273815D01*
X123816994Y-30194463D01*
X123706680Y-30135498D01*
X123586982Y-30099188D01*
X123462500Y-30086928D01*
X123310750Y-30090000D01*
X123152000Y-30248750D01*
X122898000Y-30248750D01*
X122739250Y-30090000D01*
X122587500Y-30086928D01*
X122463018Y-30099188D01*
X122343320Y-30135498D01*
X122233006Y-30194463D01*
X122166430Y-30249100D01*
X122144775Y-30231329D01*
X121996642Y-30152150D01*
X121835908Y-30103392D01*
X121668750Y-30086928D01*
X121231250Y-30086928D01*
X121064092Y-30103392D01*
X120903358Y-30152150D01*
X120755225Y-30231329D01*
X120635402Y-30329665D01*
X120565256Y-30282795D01*
X120376898Y-30204774D01*
X120176939Y-30165000D01*
X119973061Y-30165000D01*
X119773102Y-30204774D01*
X119584744Y-30282795D01*
X119415226Y-30396063D01*
X119271063Y-30540226D01*
X119157795Y-30709744D01*
X119079774Y-30898102D01*
X119040000Y-31098061D01*
X91735000Y-31098061D01*
X91735000Y-30923061D01*
X91695226Y-30723102D01*
X91617205Y-30534744D01*
X91503937Y-30365226D01*
X91359774Y-30221063D01*
X91190256Y-30107795D01*
X91001898Y-30029774D01*
X90801939Y-29990000D01*
X90598061Y-29990000D01*
X90398102Y-30029774D01*
X90209744Y-30107795D01*
X90040226Y-30221063D01*
X89996289Y-30265000D01*
X89820918Y-30265000D01*
X89737115Y-30162885D01*
X89607275Y-30056329D01*
X89459142Y-29977150D01*
X89298408Y-29928392D01*
X89131250Y-29911928D01*
X88693750Y-29911928D01*
X88526592Y-29928392D01*
X88365858Y-29977150D01*
X88217725Y-30056329D01*
X88196070Y-30074100D01*
X88129494Y-30019463D01*
X88019180Y-29960498D01*
X87899482Y-29924188D01*
X87775000Y-29911928D01*
X87623250Y-29915000D01*
X87464500Y-30073750D01*
X87210500Y-30073750D01*
X87051750Y-29915000D01*
X86900000Y-29911928D01*
X86775518Y-29924188D01*
X86655820Y-29960498D01*
X86545506Y-30019463D01*
X86448815Y-30098815D01*
X86369463Y-30195506D01*
X86310498Y-30305820D01*
X86274188Y-30425518D01*
X86261928Y-30550000D01*
X84273813Y-30550000D01*
X84232535Y-29533191D01*
X84391667Y-27939721D01*
X102990000Y-27939721D01*
X102990000Y-28360279D01*
X103072047Y-28772756D01*
X103232988Y-29161302D01*
X103466637Y-29510983D01*
X103764017Y-29808363D01*
X104113698Y-30042012D01*
X104502244Y-30202953D01*
X104914721Y-30285000D01*
X105335279Y-30285000D01*
X105747756Y-30202953D01*
X106136302Y-30042012D01*
X106485983Y-29808363D01*
X106783363Y-29510983D01*
X107017012Y-29161302D01*
X107177953Y-28772756D01*
X107260000Y-28360279D01*
X107260000Y-27939721D01*
X107177953Y-27527244D01*
X107017012Y-27138698D01*
X106783363Y-26789017D01*
X106485983Y-26491637D01*
X106136302Y-26257988D01*
X105747756Y-26097047D01*
X105335279Y-26015000D01*
X104914721Y-26015000D01*
X104502244Y-26097047D01*
X104113698Y-26257988D01*
X103764017Y-26491637D01*
X103466637Y-26789017D01*
X103232988Y-27138698D01*
X103072047Y-27527244D01*
X102990000Y-27939721D01*
X84391667Y-27939721D01*
X84395917Y-27897168D01*
X84773410Y-26358352D01*
X85137072Y-25450000D01*
X88649428Y-25450000D01*
X88661688Y-25574482D01*
X88697998Y-25694180D01*
X88756963Y-25804494D01*
X88836315Y-25901185D01*
X88933006Y-25980537D01*
X89043320Y-26039502D01*
X89163018Y-26075812D01*
X89287500Y-26088072D01*
X89439250Y-26085000D01*
X89598000Y-25926250D01*
X89598000Y-25102000D01*
X88811250Y-25102000D01*
X88652500Y-25260750D01*
X88649428Y-25450000D01*
X85137072Y-25450000D01*
X85346652Y-24926514D01*
X85590404Y-24500000D01*
X88649428Y-24500000D01*
X88652500Y-24689250D01*
X88811250Y-24848000D01*
X89598000Y-24848000D01*
X89598000Y-24023750D01*
X89852000Y-24023750D01*
X89852000Y-24848000D01*
X89872000Y-24848000D01*
X89872000Y-25102000D01*
X89852000Y-25102000D01*
X89852000Y-25926250D01*
X90010750Y-26085000D01*
X90162500Y-26088072D01*
X90286982Y-26075812D01*
X90406680Y-26039502D01*
X90516994Y-25980537D01*
X90583570Y-25925900D01*
X90605225Y-25943671D01*
X90753358Y-26022850D01*
X90914092Y-26071608D01*
X91081250Y-26088072D01*
X91518750Y-26088072D01*
X91685908Y-26071608D01*
X91846642Y-26022850D01*
X91994775Y-25943671D01*
X92033087Y-25912229D01*
X92173102Y-25970226D01*
X92373061Y-26010000D01*
X92576939Y-26010000D01*
X92776898Y-25970226D01*
X92965256Y-25892205D01*
X93134774Y-25778937D01*
X93278937Y-25634774D01*
X93392205Y-25465256D01*
X93470226Y-25276898D01*
X93510000Y-25076939D01*
X93510000Y-24873061D01*
X93470226Y-24673102D01*
X93392205Y-24484744D01*
X93278937Y-24315226D01*
X93134774Y-24171063D01*
X92965256Y-24057795D01*
X92776898Y-23979774D01*
X92576939Y-23940000D01*
X92373061Y-23940000D01*
X92173102Y-23979774D01*
X92033087Y-24037771D01*
X91994775Y-24006329D01*
X91846642Y-23927150D01*
X91685908Y-23878392D01*
X91518750Y-23861928D01*
X91081250Y-23861928D01*
X90914092Y-23878392D01*
X90753358Y-23927150D01*
X90605225Y-24006329D01*
X90583570Y-24024100D01*
X90516994Y-23969463D01*
X90406680Y-23910498D01*
X90286982Y-23874188D01*
X90162500Y-23861928D01*
X90010750Y-23865000D01*
X89852000Y-24023750D01*
X89598000Y-24023750D01*
X89439250Y-23865000D01*
X89287500Y-23861928D01*
X89163018Y-23874188D01*
X89043320Y-23910498D01*
X88933006Y-23969463D01*
X88836315Y-24048815D01*
X88756963Y-24145506D01*
X88697998Y-24255820D01*
X88661688Y-24375518D01*
X88649428Y-24500000D01*
X85590404Y-24500000D01*
X86097781Y-23612203D01*
X87009026Y-22426749D01*
X88062417Y-21382046D01*
X89239675Y-20490265D01*
X90522275Y-19763571D01*
X91891588Y-19213957D01*
X93329227Y-18853132D01*
X94817242Y-18692645D01*
X96338425Y-18744137D01*
G37*
X96338425Y-18744137D02*
X97876344Y-19019744D01*
X99415107Y-19532532D01*
X100912733Y-20283634D01*
X102644657Y-21694198D01*
X104233174Y-23362886D01*
X104479123Y-23705642D01*
X104484268Y-23716093D01*
X104521268Y-23764377D01*
X104535583Y-23784326D01*
X104543221Y-23793024D01*
X104572332Y-23831013D01*
X104590885Y-23847304D01*
X104607176Y-23865857D01*
X104645166Y-23894969D01*
X104681124Y-23926544D01*
X104702497Y-23938902D01*
X104722096Y-23953921D01*
X104765033Y-23975061D01*
X104806462Y-23999016D01*
X104829834Y-24006966D01*
X104851988Y-24017874D01*
X104898234Y-24030233D01*
X104943531Y-24045642D01*
X104968004Y-24048880D01*
X104991861Y-24055256D01*
X105039619Y-24058356D01*
X105087063Y-24064633D01*
X105111701Y-24063034D01*
X105136339Y-24064633D01*
X105183788Y-24058355D01*
X105231540Y-24055256D01*
X105255390Y-24048882D01*
X105279871Y-24045643D01*
X105325181Y-24030230D01*
X105371413Y-24017874D01*
X105393564Y-24006968D01*
X105416940Y-23999016D01*
X105458371Y-23975060D01*
X105501306Y-23953921D01*
X105520905Y-23938902D01*
X105542278Y-23926544D01*
X105578236Y-23894969D01*
X105616226Y-23865857D01*
X105632517Y-23847304D01*
X105651070Y-23831013D01*
X105680181Y-23793024D01*
X105687819Y-23784326D01*
X105702134Y-23764376D01*
X105739134Y-23716093D01*
X105744279Y-23705643D01*
X106004836Y-23342529D01*
X106539810Y-22698061D01*
X113190000Y-22698061D01*
X113190000Y-22901939D01*
X113229774Y-23101898D01*
X113307795Y-23290256D01*
X113421063Y-23459774D01*
X113565226Y-23603937D01*
X113734744Y-23717205D01*
X113923102Y-23795226D01*
X114123061Y-23835000D01*
X114326939Y-23835000D01*
X114526898Y-23795226D01*
X114715256Y-23717205D01*
X114880167Y-23607016D01*
X114925385Y-23662115D01*
X115055225Y-23768671D01*
X115203358Y-23847850D01*
X115364092Y-23896608D01*
X115531250Y-23913072D01*
X115968750Y-23913072D01*
X116135908Y-23896608D01*
X116296642Y-23847850D01*
X116444775Y-23768671D01*
X116466430Y-23750900D01*
X116533006Y-23805537D01*
X116643320Y-23864502D01*
X116763018Y-23900812D01*
X116887500Y-23913072D01*
X117039250Y-23910000D01*
X117198000Y-23751250D01*
X117198000Y-22927000D01*
X117452000Y-22927000D01*
X117452000Y-23751250D01*
X117610750Y-23910000D01*
X117762500Y-23913072D01*
X117886982Y-23900812D01*
X118006680Y-23864502D01*
X118116994Y-23805537D01*
X118213685Y-23726185D01*
X118293037Y-23629494D01*
X118352002Y-23519180D01*
X118388312Y-23399482D01*
X118400572Y-23275000D01*
X118397500Y-23085750D01*
X118238750Y-22927000D01*
X117452000Y-22927000D01*
X117198000Y-22927000D01*
X117178000Y-22927000D01*
X117178000Y-22673000D01*
X117198000Y-22673000D01*
X117198000Y-21848750D01*
X117452000Y-21848750D01*
X117452000Y-22673000D01*
X118238750Y-22673000D01*
X118397500Y-22514250D01*
X118400572Y-22325000D01*
X118388312Y-22200518D01*
X118352002Y-22080820D01*
X118293037Y-21970506D01*
X118213685Y-21873815D01*
X118116994Y-21794463D01*
X118006680Y-21735498D01*
X117886982Y-21699188D01*
X117762500Y-21686928D01*
X117610750Y-21690000D01*
X117452000Y-21848750D01*
X117198000Y-21848750D01*
X117039250Y-21690000D01*
X116887500Y-21686928D01*
X116763018Y-21699188D01*
X116643320Y-21735498D01*
X116533006Y-21794463D01*
X116466430Y-21849100D01*
X116444775Y-21831329D01*
X116296642Y-21752150D01*
X116135908Y-21703392D01*
X115968750Y-21686928D01*
X115531250Y-21686928D01*
X115364092Y-21703392D01*
X115203358Y-21752150D01*
X115055225Y-21831329D01*
X114925385Y-21937885D01*
X114880167Y-21992984D01*
X114715256Y-21882795D01*
X114526898Y-21804774D01*
X114326939Y-21765000D01*
X114123061Y-21765000D01*
X113923102Y-21804774D01*
X113734744Y-21882795D01*
X113565226Y-21996063D01*
X113421063Y-22140226D01*
X113307795Y-22309744D01*
X113229774Y-22498102D01*
X113190000Y-22698061D01*
X106539810Y-22698061D01*
X106883090Y-22284522D01*
X107897678Y-21345081D01*
X109036435Y-20521127D01*
X110267908Y-19830068D01*
X111559613Y-19288163D01*
X112878380Y-18910297D01*
X114190653Y-18709637D01*
X115470359Y-18697026D01*
X117138081Y-18919503D01*
X118681896Y-19341649D01*
X120092927Y-19946100D01*
X121367095Y-20717139D01*
X122499769Y-21639833D01*
X123485565Y-22699714D01*
X124318323Y-23882436D01*
X124991241Y-25173513D01*
X125497086Y-26558226D01*
X125828371Y-28021629D01*
X125977454Y-29548551D01*
X125936613Y-31123795D01*
X125698012Y-32732068D01*
X125253663Y-34358099D01*
X124595366Y-35986618D01*
X123717963Y-37596205D01*
X122434393Y-39358448D01*
X120555184Y-41484321D01*
X118175231Y-43865238D01*
X115408415Y-46380447D01*
X115407654Y-46381016D01*
X115381527Y-46404890D01*
X115355678Y-46428388D01*
X115355049Y-46429084D01*
X112504496Y-49033788D01*
X112490943Y-49044972D01*
X112477854Y-49058132D01*
X112464160Y-49070645D01*
X112452419Y-49083705D01*
X109822587Y-51727812D01*
X109808185Y-51741042D01*
X109797120Y-51753417D01*
X109785436Y-51765164D01*
X109773093Y-51780287D01*
X107506951Y-54314628D01*
X107489056Y-54333568D01*
X107482862Y-54341568D01*
X107476143Y-54349082D01*
X107460811Y-54370048D01*
X105689727Y-56657480D01*
X105136009Y-57368023D01*
X105092254Y-57397659D01*
X104817609Y-57079329D01*
X104792443Y-57044806D01*
X104783445Y-57036514D01*
X103230496Y-55047654D01*
X103217315Y-55029418D01*
X103208271Y-55019190D01*
X103199884Y-55008449D01*
X103184395Y-54992188D01*
X101148323Y-52689602D01*
X101137813Y-52676382D01*
X101124400Y-52662547D01*
X101111660Y-52648139D01*
X101099311Y-52636667D01*
X98837654Y-50303791D01*
X98826055Y-50290554D01*
X98812526Y-50277872D01*
X98799633Y-50264573D01*
X98786218Y-50253211D01*
X96529311Y-48137606D01*
X96521745Y-48129480D01*
X96502977Y-48112922D01*
X96484727Y-48095814D01*
X96475926Y-48089055D01*
X93760165Y-45692999D01*
X93374987Y-45325000D01*
X95186928Y-45325000D01*
X95199188Y-45449482D01*
X95235498Y-45569180D01*
X95294463Y-45679494D01*
X95373815Y-45776185D01*
X95470506Y-45855537D01*
X95580820Y-45914502D01*
X95700518Y-45950812D01*
X95825000Y-45963072D01*
X95976750Y-45960000D01*
X96135500Y-45801250D01*
X96135500Y-44977000D01*
X95348750Y-44977000D01*
X95190000Y-45135750D01*
X95186928Y-45325000D01*
X93374987Y-45325000D01*
X92380639Y-44375000D01*
X95186928Y-44375000D01*
X95190000Y-44564250D01*
X95348750Y-44723000D01*
X96135500Y-44723000D01*
X96135500Y-43898750D01*
X96389500Y-43898750D01*
X96389500Y-44723000D01*
X96409500Y-44723000D01*
X96409500Y-44977000D01*
X96389500Y-44977000D01*
X96389500Y-45801250D01*
X96548250Y-45960000D01*
X96700000Y-45963072D01*
X96824482Y-45950812D01*
X96944180Y-45914502D01*
X97054494Y-45855537D01*
X97121070Y-45800900D01*
X97142725Y-45818671D01*
X97290858Y-45897850D01*
X97451592Y-45946608D01*
X97618750Y-45963072D01*
X98056250Y-45963072D01*
X98223408Y-45946608D01*
X98384142Y-45897850D01*
X98532275Y-45818671D01*
X98624049Y-45743355D01*
X98659744Y-45767205D01*
X98848102Y-45845226D01*
X99048061Y-45885000D01*
X99251939Y-45885000D01*
X99451898Y-45845226D01*
X99640256Y-45767205D01*
X99809774Y-45653937D01*
X99953937Y-45509774D01*
X100067205Y-45340256D01*
X100145226Y-45151898D01*
X100155934Y-45098061D01*
X109790000Y-45098061D01*
X109790000Y-45301939D01*
X109829774Y-45501898D01*
X109907795Y-45690256D01*
X110021063Y-45859774D01*
X110165226Y-46003937D01*
X110334744Y-46117205D01*
X110523102Y-46195226D01*
X110723061Y-46235000D01*
X110926939Y-46235000D01*
X111126898Y-46195226D01*
X111315256Y-46117205D01*
X111415582Y-46050170D01*
X111425385Y-46062115D01*
X111555225Y-46168671D01*
X111703358Y-46247850D01*
X111864092Y-46296608D01*
X112031250Y-46313072D01*
X112468750Y-46313072D01*
X112635908Y-46296608D01*
X112796642Y-46247850D01*
X112944775Y-46168671D01*
X112966430Y-46150900D01*
X113033006Y-46205537D01*
X113143320Y-46264502D01*
X113263018Y-46300812D01*
X113387500Y-46313072D01*
X113539250Y-46310000D01*
X113698000Y-46151250D01*
X113698000Y-45327000D01*
X113952000Y-45327000D01*
X113952000Y-46151250D01*
X114110750Y-46310000D01*
X114262500Y-46313072D01*
X114386982Y-46300812D01*
X114506680Y-46264502D01*
X114616994Y-46205537D01*
X114713685Y-46126185D01*
X114793037Y-46029494D01*
X114852002Y-45919180D01*
X114888312Y-45799482D01*
X114900572Y-45675000D01*
X114897500Y-45485750D01*
X114738750Y-45327000D01*
X113952000Y-45327000D01*
X113698000Y-45327000D01*
X113678000Y-45327000D01*
X113678000Y-45073000D01*
X113698000Y-45073000D01*
X113698000Y-44248750D01*
X113952000Y-44248750D01*
X113952000Y-45073000D01*
X114738750Y-45073000D01*
X114897500Y-44914250D01*
X114900572Y-44725000D01*
X114888312Y-44600518D01*
X114852002Y-44480820D01*
X114793037Y-44370506D01*
X114713685Y-44273815D01*
X114616994Y-44194463D01*
X114506680Y-44135498D01*
X114386982Y-44099188D01*
X114262500Y-44086928D01*
X114110750Y-44090000D01*
X113952000Y-44248750D01*
X113698000Y-44248750D01*
X113539250Y-44090000D01*
X113387500Y-44086928D01*
X113263018Y-44099188D01*
X113143320Y-44135498D01*
X113033006Y-44194463D01*
X112966430Y-44249100D01*
X112944775Y-44231329D01*
X112796642Y-44152150D01*
X112635908Y-44103392D01*
X112468750Y-44086928D01*
X112031250Y-44086928D01*
X111864092Y-44103392D01*
X111703358Y-44152150D01*
X111555225Y-44231329D01*
X111425385Y-44337885D01*
X111415582Y-44349830D01*
X111315256Y-44282795D01*
X111126898Y-44204774D01*
X110926939Y-44165000D01*
X110723061Y-44165000D01*
X110523102Y-44204774D01*
X110334744Y-44282795D01*
X110165226Y-44396063D01*
X110021063Y-44540226D01*
X109907795Y-44709744D01*
X109829774Y-44898102D01*
X109790000Y-45098061D01*
X100155934Y-45098061D01*
X100185000Y-44951939D01*
X100185000Y-44748061D01*
X100145226Y-44548102D01*
X100067205Y-44359744D01*
X99953937Y-44190226D01*
X99809774Y-44046063D01*
X99640256Y-43932795D01*
X99451898Y-43854774D01*
X99251939Y-43815000D01*
X99048061Y-43815000D01*
X98848102Y-43854774D01*
X98659744Y-43932795D01*
X98624049Y-43956645D01*
X98532275Y-43881329D01*
X98384142Y-43802150D01*
X98223408Y-43753392D01*
X98056250Y-43736928D01*
X97618750Y-43736928D01*
X97451592Y-43753392D01*
X97290858Y-43802150D01*
X97142725Y-43881329D01*
X97121070Y-43899100D01*
X97054494Y-43844463D01*
X96944180Y-43785498D01*
X96824482Y-43749188D01*
X96700000Y-43736928D01*
X96548250Y-43740000D01*
X96389500Y-43898750D01*
X96135500Y-43898750D01*
X95976750Y-43740000D01*
X95825000Y-43736928D01*
X95700518Y-43749188D01*
X95580820Y-43785498D01*
X95470506Y-43844463D01*
X95373815Y-43923815D01*
X95294463Y-44020506D01*
X95235498Y-44130820D01*
X95199188Y-44250518D01*
X95186928Y-44375000D01*
X92380639Y-44375000D01*
X89519635Y-41641598D01*
X87963861Y-39855213D01*
X86725989Y-38153019D01*
X85776574Y-36495498D01*
X85495374Y-35825000D01*
X97224428Y-35825000D01*
X97236688Y-35949482D01*
X97272998Y-36069180D01*
X97331963Y-36179494D01*
X97411315Y-36276185D01*
X97508006Y-36355537D01*
X97618320Y-36414502D01*
X97738018Y-36450812D01*
X97862500Y-36463072D01*
X98014250Y-36460000D01*
X98173000Y-36301250D01*
X98173000Y-35477000D01*
X97386250Y-35477000D01*
X97227500Y-35635750D01*
X97224428Y-35825000D01*
X85495374Y-35825000D01*
X85096954Y-34875000D01*
X97224428Y-34875000D01*
X97227500Y-35064250D01*
X97386250Y-35223000D01*
X98173000Y-35223000D01*
X98173000Y-34398750D01*
X98427000Y-34398750D01*
X98427000Y-35223000D01*
X98447000Y-35223000D01*
X98447000Y-35477000D01*
X98427000Y-35477000D01*
X98427000Y-36301250D01*
X98585750Y-36460000D01*
X98737500Y-36463072D01*
X98861982Y-36450812D01*
X98981680Y-36414502D01*
X99091994Y-36355537D01*
X99158570Y-36300900D01*
X99180225Y-36318671D01*
X99328358Y-36397850D01*
X99489092Y-36446608D01*
X99656250Y-36463072D01*
X100093750Y-36463072D01*
X100260908Y-36446608D01*
X100421642Y-36397850D01*
X100569775Y-36318671D01*
X100699615Y-36212115D01*
X100783418Y-36110000D01*
X101196289Y-36110000D01*
X101240226Y-36153937D01*
X101409744Y-36267205D01*
X101598102Y-36345226D01*
X101798061Y-36385000D01*
X102001939Y-36385000D01*
X102201898Y-36345226D01*
X102390256Y-36267205D01*
X102559774Y-36153937D01*
X102703937Y-36009774D01*
X102817205Y-35840256D01*
X102895226Y-35651898D01*
X102905934Y-35598061D01*
X109615000Y-35598061D01*
X109615000Y-35801939D01*
X109654774Y-36001898D01*
X109732795Y-36190256D01*
X109846063Y-36359774D01*
X109990226Y-36503937D01*
X110159744Y-36617205D01*
X110348102Y-36695226D01*
X110548061Y-36735000D01*
X110751939Y-36735000D01*
X110951898Y-36695226D01*
X111140256Y-36617205D01*
X111148390Y-36611770D01*
X111217725Y-36668671D01*
X111365858Y-36747850D01*
X111526592Y-36796608D01*
X111693750Y-36813072D01*
X112131250Y-36813072D01*
X112298408Y-36796608D01*
X112459142Y-36747850D01*
X112607275Y-36668671D01*
X112628930Y-36650900D01*
X112695506Y-36705537D01*
X112805820Y-36764502D01*
X112925518Y-36800812D01*
X113050000Y-36813072D01*
X113201750Y-36810000D01*
X113360500Y-36651250D01*
X113360500Y-35827000D01*
X113614500Y-35827000D01*
X113614500Y-36651250D01*
X113773250Y-36810000D01*
X113925000Y-36813072D01*
X114049482Y-36800812D01*
X114169180Y-36764502D01*
X114279494Y-36705537D01*
X114376185Y-36626185D01*
X114455537Y-36529494D01*
X114514502Y-36419180D01*
X114550812Y-36299482D01*
X114563072Y-36175000D01*
X114560000Y-35985750D01*
X114401250Y-35827000D01*
X113614500Y-35827000D01*
X113360500Y-35827000D01*
X113340500Y-35827000D01*
X113340500Y-35573000D01*
X113360500Y-35573000D01*
X113360500Y-34748750D01*
X113614500Y-34748750D01*
X113614500Y-35573000D01*
X114401250Y-35573000D01*
X114560000Y-35414250D01*
X114563072Y-35225000D01*
X114550812Y-35100518D01*
X114514502Y-34980820D01*
X114455537Y-34870506D01*
X114376185Y-34773815D01*
X114279494Y-34694463D01*
X114169180Y-34635498D01*
X114049482Y-34599188D01*
X113925000Y-34586928D01*
X113773250Y-34590000D01*
X113614500Y-34748750D01*
X113360500Y-34748750D01*
X113201750Y-34590000D01*
X113050000Y-34586928D01*
X112925518Y-34599188D01*
X112805820Y-34635498D01*
X112695506Y-34694463D01*
X112628930Y-34749100D01*
X112607275Y-34731329D01*
X112459142Y-34652150D01*
X112298408Y-34603392D01*
X112131250Y-34586928D01*
X111693750Y-34586928D01*
X111526592Y-34603392D01*
X111365858Y-34652150D01*
X111217725Y-34731329D01*
X111148390Y-34788230D01*
X111140256Y-34782795D01*
X110951898Y-34704774D01*
X110751939Y-34665000D01*
X110548061Y-34665000D01*
X110348102Y-34704774D01*
X110159744Y-34782795D01*
X109990226Y-34896063D01*
X109846063Y-35040226D01*
X109732795Y-35209744D01*
X109654774Y-35398102D01*
X109615000Y-35598061D01*
X102905934Y-35598061D01*
X102935000Y-35451939D01*
X102935000Y-35248061D01*
X102895226Y-35048102D01*
X102817205Y-34859744D01*
X102703937Y-34690226D01*
X102559774Y-34546063D01*
X102390256Y-34432795D01*
X102201898Y-34354774D01*
X102001939Y-34315000D01*
X101798061Y-34315000D01*
X101598102Y-34354774D01*
X101409744Y-34432795D01*
X101240226Y-34546063D01*
X101196289Y-34590000D01*
X100783418Y-34590000D01*
X100699615Y-34487885D01*
X100569775Y-34381329D01*
X100421642Y-34302150D01*
X100260908Y-34253392D01*
X100093750Y-34236928D01*
X99656250Y-34236928D01*
X99489092Y-34253392D01*
X99328358Y-34302150D01*
X99180225Y-34381329D01*
X99158570Y-34399100D01*
X99091994Y-34344463D01*
X98981680Y-34285498D01*
X98861982Y-34249188D01*
X98737500Y-34236928D01*
X98585750Y-34240000D01*
X98427000Y-34398750D01*
X98173000Y-34398750D01*
X98014250Y-34240000D01*
X97862500Y-34236928D01*
X97738018Y-34249188D01*
X97618320Y-34285498D01*
X97508006Y-34344463D01*
X97411315Y-34423815D01*
X97331963Y-34520506D01*
X97272998Y-34630820D01*
X97236688Y-34750518D01*
X97224428Y-34875000D01*
X85096954Y-34875000D01*
X85078481Y-34830955D01*
X84596757Y-33102960D01*
X84340500Y-31500000D01*
X86261928Y-31500000D01*
X86274188Y-31624482D01*
X86310498Y-31744180D01*
X86369463Y-31854494D01*
X86448815Y-31951185D01*
X86545506Y-32030537D01*
X86655820Y-32089502D01*
X86775518Y-32125812D01*
X86900000Y-32138072D01*
X87051750Y-32135000D01*
X87210500Y-31976250D01*
X87210500Y-31152000D01*
X86423750Y-31152000D01*
X86265000Y-31310750D01*
X86261928Y-31500000D01*
X84340500Y-31500000D01*
X84302807Y-31264222D01*
X84273813Y-30550000D01*
X86261928Y-30550000D01*
X86265000Y-30739250D01*
X86423750Y-30898000D01*
X87210500Y-30898000D01*
X87210500Y-30073750D01*
X87464500Y-30073750D01*
X87464500Y-30898000D01*
X87484500Y-30898000D01*
X87484500Y-31152000D01*
X87464500Y-31152000D01*
X87464500Y-31976250D01*
X87623250Y-32135000D01*
X87775000Y-32138072D01*
X87899482Y-32125812D01*
X88019180Y-32089502D01*
X88129494Y-32030537D01*
X88196070Y-31975900D01*
X88217725Y-31993671D01*
X88365858Y-32072850D01*
X88526592Y-32121608D01*
X88693750Y-32138072D01*
X89131250Y-32138072D01*
X89298408Y-32121608D01*
X89459142Y-32072850D01*
X89607275Y-31993671D01*
X89737115Y-31887115D01*
X89820918Y-31785000D01*
X89996289Y-31785000D01*
X90040226Y-31828937D01*
X90209744Y-31942205D01*
X90398102Y-32020226D01*
X90598061Y-32060000D01*
X90801939Y-32060000D01*
X91001898Y-32020226D01*
X91190256Y-31942205D01*
X91359774Y-31828937D01*
X91503937Y-31684774D01*
X91617205Y-31515256D01*
X91695226Y-31326898D01*
X91735000Y-31126939D01*
X91735000Y-31098061D01*
X119040000Y-31098061D01*
X119040000Y-31301939D01*
X119079774Y-31501898D01*
X119157795Y-31690256D01*
X119271063Y-31859774D01*
X119415226Y-32003937D01*
X119584744Y-32117205D01*
X119773102Y-32195226D01*
X119973061Y-32235000D01*
X120176939Y-32235000D01*
X120376898Y-32195226D01*
X120565256Y-32117205D01*
X120635402Y-32070335D01*
X120755225Y-32168671D01*
X120903358Y-32247850D01*
X121064092Y-32296608D01*
X121231250Y-32313072D01*
X121668750Y-32313072D01*
X121835908Y-32296608D01*
X121996642Y-32247850D01*
X122144775Y-32168671D01*
X122166430Y-32150900D01*
X122233006Y-32205537D01*
X122343320Y-32264502D01*
X122463018Y-32300812D01*
X122587500Y-32313072D01*
X122739250Y-32310000D01*
X122898000Y-32151250D01*
X122898000Y-31327000D01*
X123152000Y-31327000D01*
X123152000Y-32151250D01*
X123310750Y-32310000D01*
X123462500Y-32313072D01*
X123586982Y-32300812D01*
X123706680Y-32264502D01*
X123816994Y-32205537D01*
X123913685Y-32126185D01*
X123993037Y-32029494D01*
X124052002Y-31919180D01*
X124088312Y-31799482D01*
X124100572Y-31675000D01*
X124097500Y-31485750D01*
X123938750Y-31327000D01*
X123152000Y-31327000D01*
X122898000Y-31327000D01*
X122878000Y-31327000D01*
X122878000Y-31073000D01*
X122898000Y-31073000D01*
X122898000Y-30248750D01*
X123152000Y-30248750D01*
X123152000Y-31073000D01*
X123938750Y-31073000D01*
X124097500Y-30914250D01*
X124100572Y-30725000D01*
X124088312Y-30600518D01*
X124052002Y-30480820D01*
X123993037Y-30370506D01*
X123913685Y-30273815D01*
X123816994Y-30194463D01*
X123706680Y-30135498D01*
X123586982Y-30099188D01*
X123462500Y-30086928D01*
X123310750Y-30090000D01*
X123152000Y-30248750D01*
X122898000Y-30248750D01*
X122739250Y-30090000D01*
X122587500Y-30086928D01*
X122463018Y-30099188D01*
X122343320Y-30135498D01*
X122233006Y-30194463D01*
X122166430Y-30249100D01*
X122144775Y-30231329D01*
X121996642Y-30152150D01*
X121835908Y-30103392D01*
X121668750Y-30086928D01*
X121231250Y-30086928D01*
X121064092Y-30103392D01*
X120903358Y-30152150D01*
X120755225Y-30231329D01*
X120635402Y-30329665D01*
X120565256Y-30282795D01*
X120376898Y-30204774D01*
X120176939Y-30165000D01*
X119973061Y-30165000D01*
X119773102Y-30204774D01*
X119584744Y-30282795D01*
X119415226Y-30396063D01*
X119271063Y-30540226D01*
X119157795Y-30709744D01*
X119079774Y-30898102D01*
X119040000Y-31098061D01*
X91735000Y-31098061D01*
X91735000Y-30923061D01*
X91695226Y-30723102D01*
X91617205Y-30534744D01*
X91503937Y-30365226D01*
X91359774Y-30221063D01*
X91190256Y-30107795D01*
X91001898Y-30029774D01*
X90801939Y-29990000D01*
X90598061Y-29990000D01*
X90398102Y-30029774D01*
X90209744Y-30107795D01*
X90040226Y-30221063D01*
X89996289Y-30265000D01*
X89820918Y-30265000D01*
X89737115Y-30162885D01*
X89607275Y-30056329D01*
X89459142Y-29977150D01*
X89298408Y-29928392D01*
X89131250Y-29911928D01*
X88693750Y-29911928D01*
X88526592Y-29928392D01*
X88365858Y-29977150D01*
X88217725Y-30056329D01*
X88196070Y-30074100D01*
X88129494Y-30019463D01*
X88019180Y-29960498D01*
X87899482Y-29924188D01*
X87775000Y-29911928D01*
X87623250Y-29915000D01*
X87464500Y-30073750D01*
X87210500Y-30073750D01*
X87051750Y-29915000D01*
X86900000Y-29911928D01*
X86775518Y-29924188D01*
X86655820Y-29960498D01*
X86545506Y-30019463D01*
X86448815Y-30098815D01*
X86369463Y-30195506D01*
X86310498Y-30305820D01*
X86274188Y-30425518D01*
X86261928Y-30550000D01*
X84273813Y-30550000D01*
X84232535Y-29533191D01*
X84391667Y-27939721D01*
X102990000Y-27939721D01*
X102990000Y-28360279D01*
X103072047Y-28772756D01*
X103232988Y-29161302D01*
X103466637Y-29510983D01*
X103764017Y-29808363D01*
X104113698Y-30042012D01*
X104502244Y-30202953D01*
X104914721Y-30285000D01*
X105335279Y-30285000D01*
X105747756Y-30202953D01*
X106136302Y-30042012D01*
X106485983Y-29808363D01*
X106783363Y-29510983D01*
X107017012Y-29161302D01*
X107177953Y-28772756D01*
X107260000Y-28360279D01*
X107260000Y-27939721D01*
X107177953Y-27527244D01*
X107017012Y-27138698D01*
X106783363Y-26789017D01*
X106485983Y-26491637D01*
X106136302Y-26257988D01*
X105747756Y-26097047D01*
X105335279Y-26015000D01*
X104914721Y-26015000D01*
X104502244Y-26097047D01*
X104113698Y-26257988D01*
X103764017Y-26491637D01*
X103466637Y-26789017D01*
X103232988Y-27138698D01*
X103072047Y-27527244D01*
X102990000Y-27939721D01*
X84391667Y-27939721D01*
X84395917Y-27897168D01*
X84773410Y-26358352D01*
X85137072Y-25450000D01*
X88649428Y-25450000D01*
X88661688Y-25574482D01*
X88697998Y-25694180D01*
X88756963Y-25804494D01*
X88836315Y-25901185D01*
X88933006Y-25980537D01*
X89043320Y-26039502D01*
X89163018Y-26075812D01*
X89287500Y-26088072D01*
X89439250Y-26085000D01*
X89598000Y-25926250D01*
X89598000Y-25102000D01*
X88811250Y-25102000D01*
X88652500Y-25260750D01*
X88649428Y-25450000D01*
X85137072Y-25450000D01*
X85346652Y-24926514D01*
X85590404Y-24500000D01*
X88649428Y-24500000D01*
X88652500Y-24689250D01*
X88811250Y-24848000D01*
X89598000Y-24848000D01*
X89598000Y-24023750D01*
X89852000Y-24023750D01*
X89852000Y-24848000D01*
X89872000Y-24848000D01*
X89872000Y-25102000D01*
X89852000Y-25102000D01*
X89852000Y-25926250D01*
X90010750Y-26085000D01*
X90162500Y-26088072D01*
X90286982Y-26075812D01*
X90406680Y-26039502D01*
X90516994Y-25980537D01*
X90583570Y-25925900D01*
X90605225Y-25943671D01*
X90753358Y-26022850D01*
X90914092Y-26071608D01*
X91081250Y-26088072D01*
X91518750Y-26088072D01*
X91685908Y-26071608D01*
X91846642Y-26022850D01*
X91994775Y-25943671D01*
X92033087Y-25912229D01*
X92173102Y-25970226D01*
X92373061Y-26010000D01*
X92576939Y-26010000D01*
X92776898Y-25970226D01*
X92965256Y-25892205D01*
X93134774Y-25778937D01*
X93278937Y-25634774D01*
X93392205Y-25465256D01*
X93470226Y-25276898D01*
X93510000Y-25076939D01*
X93510000Y-24873061D01*
X93470226Y-24673102D01*
X93392205Y-24484744D01*
X93278937Y-24315226D01*
X93134774Y-24171063D01*
X92965256Y-24057795D01*
X92776898Y-23979774D01*
X92576939Y-23940000D01*
X92373061Y-23940000D01*
X92173102Y-23979774D01*
X92033087Y-24037771D01*
X91994775Y-24006329D01*
X91846642Y-23927150D01*
X91685908Y-23878392D01*
X91518750Y-23861928D01*
X91081250Y-23861928D01*
X90914092Y-23878392D01*
X90753358Y-23927150D01*
X90605225Y-24006329D01*
X90583570Y-24024100D01*
X90516994Y-23969463D01*
X90406680Y-23910498D01*
X90286982Y-23874188D01*
X90162500Y-23861928D01*
X90010750Y-23865000D01*
X89852000Y-24023750D01*
X89598000Y-24023750D01*
X89439250Y-23865000D01*
X89287500Y-23861928D01*
X89163018Y-23874188D01*
X89043320Y-23910498D01*
X88933006Y-23969463D01*
X88836315Y-24048815D01*
X88756963Y-24145506D01*
X88697998Y-24255820D01*
X88661688Y-24375518D01*
X88649428Y-24500000D01*
X85590404Y-24500000D01*
X86097781Y-23612203D01*
X87009026Y-22426749D01*
X88062417Y-21382046D01*
X89239675Y-20490265D01*
X90522275Y-19763571D01*
X91891588Y-19213957D01*
X93329227Y-18853132D01*
X94817242Y-18692645D01*
X96338425Y-18744137D01*
M02*
